<?xml version="1.0" encoding="UTF-8" standalone="no"?>
<svg
   width="16"
   height="16"
   viewBox="0 0 16 16"
   fill="none"
   version="1.1"
   id="svg3"
   sodipodi:docname="envelope.svg"
   inkscape:version="1.3.2 (091e20e, 2023-11-25, custom)"
   xmlns:inkscape="http://www.inkscape.org/namespaces/inkscape"
   xmlns:sodipodi="http://sodipodi.sourceforge.net/DTD/sodipodi-0.dtd"
   xmlns="http://www.w3.org/2000/svg"
   xmlns:svg="http://www.w3.org/2000/svg">
  <defs
     id="defs3" />
  <sodipodi:namedview
     id="namedview3"
     pagecolor="#ffffff"
     bordercolor="#cccccc"
     borderopacity="1"
     inkscape:showpageshadow="0"
     inkscape:pageopacity="1"
     inkscape:pagecheckerboard="0"
     inkscape:deskcolor="#d1d1d1"
     inkscape:zoom="73.3125"
     inkscape:cx="7.9931799"
     inkscape:cy="8"
     inkscape:window-width="3440"
     inkscape:window-height="1369"
     inkscape:window-x="-8"
     inkscape:window-y="-8"
     inkscape:window-maximized="1"
     inkscape:current-layer="svg3" />
  <path
     d="M7.99984 7.33333L2.6665 4H13.3332L7.99984 7.33333Z"
     fill="#3972C4"
     id="path1" />
  <path
     style="color:#000000;fill:#3972c4;stroke-linecap:round;stroke-linejoin:round;-inkscape-stroke:none"
     d="M 2.6660156,2.3339844 C 1.753897,2.3339844 1,3.0878813 1,4 v 8 c 0,0.912104 0.753897,1.666016 1.6660156,1.666016 H 13.333984 C 14.246088,13.666016 15,12.912104 15,12 V 4 C 15,3.0878813 14.246088,2.3339844 13.333984,2.3339844 Z M 3,4.3339844 H 13 V 11.666016 H 3 Z"
     id="path2" />
  <path
     style="color:#000000;fill:#3972c4;stroke-linecap:round;stroke-linejoin:round;-inkscape-stroke:none"
     d="M 1.765625,3.3613281 A 1,1 0 0 0 1.1464844,3.8125 1,1 0 0 0 1.4785156,5.1875 l 6,3.6660156 a 1.0001,1.0001 0 0 0 1.0429688,0 L 14.521484,5.1875 a 1,1 0 0 0 0.332032,-1.375 1,1 0 0 0 -1.375,-0.3320312 L 8,6.828125 2.5214844,3.4804688 A 1,1 0 0 0 1.765625,3.3613281 Z"
     id="path3" />
</svg>
