<svg width="20" height="21" viewBox="0 0 20 21" fill="none" xmlns="http://www.w3.org/2000/svg">
<path d="M10.0002 8C9.33712 8 8.70124 8.26339 8.2324 8.73223C7.76356 9.20107 7.50016 9.83696 7.50016 10.5C7.50016 11.163 7.76356 11.7989 8.2324 12.2678C8.70124 12.7366 9.33712 13 10.0002 13C10.6632 13 11.2991 12.7366 11.7679 12.2678C12.2368 11.7989 12.5002 11.163 12.5002 10.5C12.5002 9.83696 12.2368 9.20107 11.7679 8.73223C11.2991 8.26339 10.6632 8 10.0002 8ZM10.0002 14.6667C8.89509 14.6667 7.83529 14.2277 7.05388 13.4463C6.27248 12.6649 5.8335 11.6051 5.8335 10.5C5.8335 9.39493 6.27248 8.33512 7.05388 7.55372C7.83529 6.77232 8.89509 6.33333 10.0002 6.33333C11.1052 6.33333 12.165 6.77232 12.9464 7.55372C13.7278 8.33512 14.1668 9.39493 14.1668 10.5C14.1668 11.6051 13.7278 12.6649 12.9464 13.4463C12.165 14.2277 11.1052 14.6667 10.0002 14.6667ZM10.0002 4.25C5.8335 4.25 2.27516 6.84167 0.833496 10.5C2.27516 14.1583 5.8335 16.75 10.0002 16.75C14.1668 16.75 17.7252 14.1583 19.1668 10.5C17.7252 6.84167 14.1668 4.25 10.0002 4.25Z" fill="white"/>
</svg>
