<svg width="44" height="44" viewBox="0 0 44 44" fill="none" xmlns="http://www.w3.org/2000/svg">
<path d="M24.5574 18.117L18.2599 18.9063L18.0344 19.9513L19.2719 20.1795C20.0804 20.372 20.2399 20.6635 20.0639 21.4693L18.0344 31.0063C17.5009 33.473 18.3231 34.6335 20.2564 34.6335C21.7551 34.6335 23.4959 33.9405 24.2851 32.989L24.5271 31.845C23.9771 32.329 23.1741 32.5215 22.6406 32.5215C21.8844 32.5215 21.6094 31.9908 21.8046 31.0558L24.5574 18.117ZM24.7499 12.375C24.7499 13.1043 24.4601 13.8038 23.9444 14.3195C23.4287 14.8353 22.7292 15.125 21.9999 15.125C21.2705 15.125 20.5711 14.8353 20.0553 14.3195C19.5396 13.8038 19.2499 13.1043 19.2499 12.375C19.2499 11.6457 19.5396 10.9462 20.0553 10.4305C20.5711 9.91473 21.2705 9.625 21.9999 9.625C22.7292 9.625 23.4287 9.91473 23.9444 10.4305C24.4601 10.9462 24.7499 11.6457 24.7499 12.375Z" fill="#3972C4"/>
</svg>
