<svg width="21" height="18" viewBox="0 0 21 18" fill="none" xmlns="http://www.w3.org/2000/svg">
<path d="M2.14777 7.80982C7.39589 5.52382 10.8946 4.01669 12.644 3.28844C17.6446 1.20916 18.6825 0.848034 19.3603 0.8358C19.5093 0.833409 19.8412 0.870253 20.0578 1.04533C20.2378 1.19299 20.2884 1.39268 20.3137 1.53288C20.3362 1.67294 20.3671 1.99216 20.3418 2.24135C20.0718 5.0876 18.899 11.9945 18.3028 15.1825C18.0525 16.5314 17.5546 16.9836 17.0737 17.0278C16.0275 17.124 15.2343 16.337 14.2218 15.6736C12.6384 14.6349 11.744 13.9886 10.2056 12.9753C8.42808 11.8041 9.5812 11.1603 10.5937 10.1085C10.8581 9.83313 15.465 5.64391 15.5521 5.26394C15.5634 5.21641 15.5746 5.03922 15.4678 4.94585C15.3637 4.85219 15.209 4.88425 15.0965 4.90957C14.9362 4.94557 12.4078 6.61844 7.50277 9.92791C6.78558 10.4212 6.13589 10.6617 5.55089 10.649C4.90964 10.6353 3.67214 10.2857 2.75245 9.98697C1.62745 9.6205 0.730265 9.42672 0.809015 8.80432C0.84839 8.48032 1.29558 8.14872 2.14777 7.80982Z" fill="white"/>
</svg>
