<svg width="20" height="20" viewBox="0 0 20 20" fill="none" xmlns="http://www.w3.org/2000/svg">
<g clip-path="url(#clip0_64_5175)">
<path fill-rule="evenodd" clip-rule="evenodd" d="M19.2743 4.81793C19.4087 4.37567 19.2743 4.05005 18.6303 4.05005H16.5041C15.963 4.05005 15.7135 4.33112 15.5783 4.64135C15.5783 4.64135 14.4969 7.23011 12.9652 8.91167C12.4695 9.39929 12.2443 9.554 11.9738 9.554C11.8385 9.554 11.6352 9.39929 11.6352 8.95622V4.81793C11.6352 4.28657 11.4861 4.05005 11.0358 4.05005H7.6921C7.35433 4.05005 7.15102 4.29629 7.15102 4.53038C7.15102 5.03339 7.91728 5.15003 7.99585 6.56591V9.64229C7.99585 10.317 7.87192 10.4393 7.60138 10.4393C6.88048 10.4393 5.12683 7.83842 4.08598 4.86248C3.88429 4.28333 3.68017 4.05005 3.13666 4.05005H1.00879C0.401285 4.05005 0.279785 4.33112 0.279785 4.64135C0.279785 5.19377 1.00069 7.93805 3.63724 11.5677C5.39494 14.0463 7.86949 15.39 10.1237 15.39C11.4756 15.39 11.6425 15.092 11.6425 14.5776V12.7041C11.6425 12.1071 11.7704 11.988 12.1989 11.988C12.5148 11.988 13.0551 12.1436 14.3171 13.3383C15.7589 14.755 15.9962 15.39 16.8078 15.39H18.9341C19.5416 15.39 19.8461 15.092 19.6712 14.5023C19.4784 13.9158 18.7899 13.0645 17.877 12.0545C17.3813 11.4794 16.6377 10.8597 16.4117 10.5495C16.0967 10.1518 16.1866 9.97439 16.4117 9.62042C16.4117 9.62042 19.0037 6.03536 19.2735 4.81793" fill="white"/>
</g>
<defs>
<clipPath id="clip0_64_5175">
<rect width="19.44" height="19.44" fill="white" transform="translate(0.279785)"/>
</clipPath>
</defs>
</svg>
