<svg width="18" height="18" viewBox="0 0 18 18" fill="none" xmlns="http://www.w3.org/2000/svg">
<g clip-path="url(#clip0_64_5171)">
<path fill-rule="evenodd" clip-rule="evenodd" d="M0.750009 9C0.750009 4.44375 4.44376 0.75 9.00001 0.75C13.5563 0.75 17.25 4.44375 17.25 9C17.25 13.5562 13.5563 17.25 9.00001 17.25C7.54801 17.25 6.18226 16.875 4.99651 16.215L1.05001 16.95L1.78501 13.0035C1.10419 11.7791 0.747892 10.4009 0.750009 9ZM5.36026 4.98525C5.85076 4.494 6.50551 4.4505 6.85876 4.46775C7.18501 4.48275 7.44076 4.67175 7.59676 4.89075L8.31076 5.89125C8.46544 6.10792 8.53826 6.37243 8.51629 6.63774C8.49432 6.90305 8.37897 7.15197 8.19076 7.34025L7.68526 7.845C7.85251 8.253 8.18776 8.91 8.63926 9.36075C9.09076 9.8115 9.74701 10.1482 10.1543 10.3155L10.6605 9.81C10.8487 9.62198 11.0975 9.50675 11.3627 9.48478C11.6278 9.46281 11.8921 9.53552 12.1088 9.69L13.11 10.4032C13.3283 10.56 13.518 10.8157 13.533 11.1412C13.5495 11.4945 13.506 12.1492 13.0155 12.6405C12.2153 13.44 10.9598 13.4482 9.81751 13.1347C8.65501 12.8152 7.47001 12.1297 6.66976 11.3302C5.87101 10.5307 5.18476 9.34575 4.86526 8.1825C4.55176 7.04025 4.56001 5.78475 5.36026 4.98525Z" fill="white"/>
</g>
<defs>
<clipPath id="clip0_64_5171">
<rect width="18" height="18" fill="white"/>
</clipPath>
</defs>
</svg>
