<svg width="34" height="34" viewBox="0 0 34 34" fill="none" xmlns="http://www.w3.org/2000/svg">
<path d="M29.0417 29.0417L31.1667 31.1667M21.25 25.5C21.25 26.6272 21.6978 27.7082 22.4948 28.5052C23.2918 29.3022 24.3728 29.75 25.5 29.75C26.6272 29.75 27.7082 29.3022 28.5052 28.5052C29.3022 27.7082 29.75 26.6272 29.75 25.5C29.75 24.3728 29.3022 23.2918 28.5052 22.4948C27.7082 21.6978 26.6272 21.25 25.5 21.25C24.3728 21.25 23.2918 21.6978 22.4948 22.4948C21.6978 23.2918 21.25 24.3728 21.25 25.5Z" stroke="white" stroke-width="2" stroke-linecap="round" stroke-linejoin="round"/>
<path d="M28.3332 17.0002V8.14458C28.3333 8.03275 28.3113 7.92201 28.2685 7.81869C28.2257 7.71538 28.163 7.62152 28.0838 7.5425L23.6242 3.08283C23.4649 2.92338 23.2489 2.83369 23.0235 2.8335H6.5165C6.29107 2.8335 6.07487 2.92305 5.91546 3.08246C5.75606 3.24186 5.6665 3.45806 5.6665 3.6835V30.3168C5.6665 30.5423 5.75606 30.7585 5.91546 30.9179C6.07487 31.0773 6.29107 31.1668 6.5165 31.1668H15.5832" stroke="white" stroke-width="2" stroke-linecap="round" stroke-linejoin="round"/>
<path d="M22.6665 2.8335V7.65016C22.6665 7.8756 22.7561 8.0918 22.9155 8.2512C23.0749 8.41061 23.2911 8.50016 23.5165 8.50016H28.3332" stroke="white" stroke-width="2" stroke-linecap="round" stroke-linejoin="round"/>
</svg>
