<svg width="44" height="44" viewBox="0 0 44 44" fill="none" xmlns="http://www.w3.org/2000/svg">
<path d="M21.6562 23.375C21.6562 23.6485 21.5476 23.9108 21.3542 24.1042C21.1608 24.2976 20.8985 24.4062 20.625 24.4062H12.375C12.1015 24.4062 11.8392 24.2976 11.6458 24.1042C11.4524 23.9108 11.3438 23.6485 11.3438 23.375C11.3438 23.1015 11.4524 22.8392 11.6458 22.6458C11.8392 22.4524 12.1015 22.3438 12.375 22.3438H20.625C20.8985 22.3438 21.1608 22.4524 21.3542 22.6458C21.5476 22.8392 21.6562 23.1015 21.6562 23.375ZM20.625 16.8438H12.375C12.1015 16.8438 11.8392 16.9524 11.6458 17.1458C11.4524 17.3392 11.3438 17.6015 11.3438 17.875C11.3438 18.1485 11.4524 18.4108 11.6458 18.6042C11.8392 18.7976 12.1015 18.9062 12.375 18.9062H20.625C20.8985 18.9062 21.1608 18.7976 21.3542 18.6042C21.5476 18.4108 21.6562 18.1485 21.6562 17.875C21.6562 17.6015 21.5476 17.3392 21.3542 17.1458C21.1608 16.9524 20.8985 16.8438 20.625 16.8438ZM39.5312 27.6066V38.5C39.5317 38.6812 39.4843 38.8594 39.394 39.0165C39.3036 39.1736 39.1735 39.3041 39.0167 39.3949C38.8598 39.4857 38.6818 39.5335 38.5006 39.5336C38.3194 39.5337 38.1413 39.4861 37.9844 39.3955L33.6875 36.9377L29.3906 39.3955C29.2337 39.4861 29.0556 39.5337 28.8744 39.5336C28.6932 39.5335 28.5152 39.4857 28.3583 39.3949C28.2015 39.3041 28.0714 39.1736 27.981 39.0165C27.8907 38.8594 27.8433 38.6812 27.8438 38.5V34.0312H6.875C6.23682 34.0312 5.62478 33.7777 5.17352 33.3265C4.72227 32.8752 4.46875 32.2632 4.46875 31.625V9.625C4.46875 8.98682 4.72227 8.37478 5.17352 7.92352C5.62478 7.47227 6.23682 7.21875 6.875 7.21875H37.125C37.7632 7.21875 38.3752 7.47227 38.8265 7.92352C39.2777 8.37478 39.5312 8.98682 39.5312 9.625V15.0184C40.3985 15.8215 41.0904 16.7951 41.5636 17.8782C42.0368 18.9613 42.281 20.1305 42.281 21.3125C42.281 22.4945 42.0368 23.6637 41.5636 24.7468C41.0904 25.8299 40.3985 26.8035 39.5312 27.6066ZM33.6875 14.7812C32.3957 14.7812 31.133 15.1643 30.0589 15.882C28.9849 16.5996 28.1477 17.6197 27.6534 18.8131C27.1591 20.0065 27.0297 21.3197 27.2817 22.5867C27.5338 23.8536 28.1558 25.0174 29.0692 25.9308C29.9826 26.8442 31.1464 27.4662 32.4133 27.7183C33.6803 27.9703 34.9935 27.8409 36.1869 27.3466C37.3803 26.8523 38.4004 26.0151 39.118 24.9411C39.8357 23.867 40.2188 22.6043 40.2188 21.3125C40.2188 19.5803 39.5306 17.9191 38.3058 16.6942C37.0809 15.4694 35.4197 14.7812 33.6875 14.7812ZM27.8438 31.9688V27.6066C26.339 26.2022 25.3882 24.3045 25.1644 22.2584C24.9405 20.2124 25.4585 18.1539 26.624 16.4574C27.7895 14.761 29.5252 13.5392 31.5154 13.0142C33.5056 12.4893 35.6181 12.6961 37.4688 13.597V9.625C37.4688 9.53383 37.4325 9.4464 37.3681 9.38193C37.3036 9.31747 37.2162 9.28125 37.125 9.28125H6.875C6.78383 9.28125 6.6964 9.31747 6.63193 9.38193C6.56747 9.4464 6.53125 9.53383 6.53125 9.625V31.625C6.53125 31.7162 6.56747 31.8036 6.63193 31.8681C6.6964 31.9325 6.78383 31.9688 6.875 31.9688H27.8438ZM37.4688 29.028C36.292 29.6058 34.9985 29.9063 33.6875 29.9063C32.3765 29.9063 31.083 29.6058 29.9062 29.028V36.7228L33.1719 34.8545C33.3286 34.764 33.5065 34.7164 33.6875 34.7164C33.8685 34.7164 34.0464 34.764 34.2031 34.8545L37.4688 36.7228V29.028Z" fill="white"/>
</svg>
