<svg width="40" height="40" viewBox="0 0 40 40" fill="none" xmlns="http://www.w3.org/2000/svg">
<path d="M35.4168 7.5448C35.4176 7.151 35.3397 6.76102 35.1876 6.39775C35.0356 6.03448 34.8125 5.70525 34.5315 5.42936C34.2505 5.15348 33.9172 4.93651 33.5512 4.79119C33.1852 4.64588 32.7939 4.57514 32.4002 4.58313C30.7412 4.57085 29.0992 4.91768 27.5868 5.59979C26.693 5.98963 25.8657 6.51714 25.1352 7.16313L12.3102 20.0065C11.2899 21.0283 10.7168 22.4133 10.7168 23.8573C10.7168 25.3013 11.2899 26.6863 12.3102 27.7081C13.3319 28.7279 14.7166 29.3007 16.1602 29.3007C17.6038 29.3007 18.9884 28.7279 20.0102 27.7081L32.8552 14.8648C33.5055 14.1174 34.0326 13.2713 34.4168 12.3581C35.0932 10.8445 35.4343 9.20256 35.4168 7.5448Z" stroke="white" stroke-width="2" stroke-linecap="round" stroke-linejoin="round"/>
<path d="M24.6251 7.67139C26.7012 10.712 29.3404 13.3269 32.4001 15.3747M16.1601 16.1547L12.1101 15.3381C11.3753 15.1972 10.6172 15.2378 9.90156 15.4562C9.18594 15.6746 8.5344 16.0642 8.00343 16.5914L4.86176 19.7331C4.73134 19.859 4.6416 20.0212 4.6041 20.1986C4.56661 20.376 4.58307 20.5606 4.65137 20.7285C4.71968 20.8965 4.83669 21.0402 4.98735 21.1411C5.13802 21.242 5.31543 21.2955 5.49676 21.2947H10.9468M23.8634 23.8581L24.6634 27.8914C24.8135 28.6245 24.779 29.3834 24.5632 30.1C24.3473 30.8165 23.9568 31.4681 23.4268 31.9964L20.2668 35.1564C20.1388 35.2822 19.9764 35.3672 19.8001 35.4008C19.6239 35.4344 19.4416 35.415 19.2763 35.3451C19.111 35.2753 18.9702 35.158 18.8715 35.0081C18.7728 34.8582 18.7207 34.6825 18.7218 34.5031V29.0531M8.4401 31.5597L20.0118 20.0064" stroke="white" stroke-width="2" stroke-linecap="round" stroke-linejoin="round"/>
</svg>
