<svg width="160" height="40" viewBox="0 0 160 40" fill="none" xmlns="http://www.w3.org/2000/svg">
<g clip-path="url(#clip0_64_4874)">
<path fill-rule="evenodd" clip-rule="evenodd" d="M8.07236 7.25098C9.04159 7.25098 9.74463 6.71064 9.74463 5.629C9.74463 4.57195 9.01735 4.05571 8.04811 4.05571H4.96976V7.25098H8.07236ZM8.53297 14.4286C9.62389 14.4286 10.423 13.7649 10.423 12.5363C10.423 11.258 9.55021 10.6434 8.50873 10.6434H4.96976V14.4286H8.53297ZM0 4.82014e-05H8.96934C10.6654 4.82014e-05 11.9745 0.417954 12.8962 1.18002C13.9382 2.03993 14.4962 3.31871 14.4962 4.84236C14.4962 6.61231 13.7932 7.71853 12.3386 8.40637V8.4806C14.2295 9.11927 15.3195 10.8396 15.3195 12.9291C15.3195 14.9203 14.5685 16.4685 13.3316 17.4032C12.2901 18.1652 10.933 18.5335 9.13904 18.5335H0V4.82014e-05ZM16.146 18.5339V0H20.8486V18.5339H16.146ZM30.618 11.9459C30.618 9.63565 29.8902 8.18527 28.4846 8.18527C27.079 8.18527 26.4002 9.63565 26.4002 11.9459C26.4002 14.2813 27.079 15.7317 28.4846 15.7317C29.8902 15.7317 30.618 14.2813 30.618 11.9459ZM21.7461 11.9459C21.7461 7.76736 24.4123 4.94083 28.5326 4.94083C32.6539 4.94083 35.2721 7.76736 35.2721 11.9459C35.2721 16.1496 32.6539 18.951 28.5326 18.951C24.4123 18.951 21.7461 16.1496 21.7461 11.9459ZM44.6788 11.9459C44.6788 9.63565 43.951 8.18527 42.5454 8.18527C41.1398 8.18527 40.461 9.63565 40.461 11.9459C40.461 14.2813 41.1398 15.7317 42.5454 15.7317C43.951 15.7317 44.6788 14.2813 44.6788 11.9459ZM35.8069 11.9459C35.8069 7.76736 38.4731 4.94083 42.5934 4.94083C46.7147 4.94083 49.3329 7.76736 49.3329 11.9459C49.3329 16.1496 46.7147 18.951 42.5934 18.951C38.4731 18.951 35.8069 16.1496 35.8069 11.9459ZM50.2307 5.30977H54.5944V7.30048H54.6667C55.5394 5.75177 56.7268 4.91644 58.594 4.91644C60.242 4.91644 61.4784 5.75177 62.1087 7.20215H62.1814C63.2481 5.45678 64.6295 4.91644 66.229 4.91644C69.2594 4.91644 70.5685 7.17757 70.5685 10.2253V18.5338H65.9866V11.0612C65.9866 9.70911 65.5745 8.82413 64.4113 8.82413C63.2724 8.82413 62.6901 9.90577 62.6901 11.3316V18.5338H58.1091V11.0612C58.1091 9.70911 57.697 8.82413 56.5338 8.82413C55.3935 8.82413 54.8126 9.90577 54.8126 11.3316V18.5338H50.2307V5.30977ZM80.6316 11.848C80.6316 9.7093 79.8563 8.33267 78.474 8.33267C77.0684 8.33267 76.1715 9.7093 76.1715 11.848C76.1715 13.9616 77.0684 15.3628 78.474 15.3628C79.8806 15.3628 80.6316 13.9862 80.6316 11.848ZM76.1715 16.8132H76.1234V18.5335H71.7598V9.64027e-05H76.3416V6.68611H76.4139C77.2866 5.5312 78.4498 4.91615 80.123 4.91615C83.3953 4.91615 85.2858 7.91476 85.2858 11.8972C85.2858 16.3953 83.2256 18.976 79.8321 18.976C78.4256 18.976 76.9719 18.2877 76.1715 16.8132ZM90.4264 10.5206H94.5961C94.5225 8.92318 93.6497 8.08689 92.5588 8.08689C91.2991 8.08689 90.5961 8.99645 90.4264 10.5206ZM85.8687 11.8967C85.8687 7.76731 88.5592 4.89162 92.4623 4.89162C94.4017 4.89162 95.9048 5.50619 97.0442 6.61241C98.5472 8.08689 99.226 10.3972 99.1766 13.1259H90.4264C90.6203 14.7729 91.3956 15.6087 92.777 15.6087C93.5775 15.6087 94.28 15.24 94.5719 14.355H98.9826C98.2073 17.3782 95.9048 18.9023 92.6325 18.9023C88.5844 18.9023 85.8687 16.1249 85.8687 11.8967ZM104.245 7.57109H104.317C105.263 5.72738 106.499 5.03907 108.075 5.03907C108.437 5.03907 108.681 5.08871 108.826 5.16198V9.21764H108.729C106.038 8.72647 104.463 10.0294 104.463 13.0034V18.5335H99.8812V5.30996H104.245V7.57109ZM117.795 11.43C117.795 9.783 117.02 8.45601 115.687 8.45601C114.402 8.45601 113.577 9.6355 113.577 11.43C113.577 13.2 114.402 14.4778 115.687 14.4778C117.02 14.4778 117.795 13.1754 117.795 11.43ZM109.36 18.5581H113.771C113.941 19.1235 114.523 19.6893 115.614 19.6893C117.093 19.6893 117.602 18.7547 117.602 17.3781V16.3953H117.505C116.777 17.2557 115.807 17.8948 114.378 17.8948C111.566 17.8948 109.117 15.7802 109.117 11.6513C109.117 7.86555 111.129 4.91611 114.16 4.91611C115.905 4.91611 116.972 5.629 117.674 6.75981H117.747V5.30991H122.11V16.7635C122.11 18.8776 121.384 20.5247 120.293 21.5085C119.153 22.54 117.529 22.9584 115.687 22.9584C112.22 22.9584 109.796 21.5085 109.36 18.5581ZM8.07236 28.2754C9.04159 28.2754 9.74463 27.7341 9.74463 26.6524C9.74463 25.5958 9.01735 25.0791 8.04811 25.0791H4.96976V28.2754H8.07236ZM8.53297 35.453C9.62389 35.453 10.423 34.7893 10.423 33.5597C10.423 32.2814 9.55021 31.6673 8.50873 31.6673H4.96976V35.453H8.53297ZM0 21.0235H8.96934C10.6654 21.0235 11.9745 21.4414 12.8962 22.2039C13.9382 23.0633 14.4962 24.3421 14.4962 25.8662C14.4962 27.6362 13.7932 28.7424 12.3386 29.4307V29.504C14.2295 30.1432 15.3195 31.8639 15.3195 33.953C15.3195 35.9442 14.5685 37.4929 13.3316 38.427C12.2901 39.1886 10.933 39.5574 9.13904 39.5574H0V21.0235ZM24.3874 39.5575V37.8367H24.3151C23.3687 39.2128 22.1575 39.9754 20.4601 39.9754C17.5034 39.9754 16.0484 37.9109 16.0484 34.8626V26.3329H20.6302V33.8297C20.6302 35.3297 21.1883 35.9197 22.2787 35.9197C23.4666 35.9197 24.1692 35.1085 24.1692 33.5839V26.3329H28.7511V39.5575H24.3874ZM29.4788 35.3785H33.7217C33.794 36.4601 34.4243 37.0992 35.588 37.0992C36.4845 37.0992 37.1633 36.8293 37.1633 35.9198C37.1633 34.8381 35.7334 34.7648 34.1329 34.4935C32.0485 34.1744 29.6485 33.4861 29.6485 30.1679C29.6485 27.4638 32.2425 25.9397 35.2728 25.9397C39.0304 25.9397 40.9931 27.4392 41.1628 30.0199H36.8486C36.7269 29.0371 36.0481 28.7667 35.2971 28.7667C34.6187 28.7667 33.9879 29.0371 33.9879 29.7987C33.9879 30.5366 35.1274 30.7333 36.533 30.9295C38.7871 31.2736 41.6477 31.814 41.6477 35.4773C41.6477 38.6479 38.9568 40 35.5637 40C31.9031 40 29.504 38.4021 29.4788 35.3785ZM42.4004 25.2759H46.9822V21.5649H42.4004V25.2759ZM42.4004 39.5575V26.3329H46.9822V39.5575H42.4004ZM52.6316 28.152H52.7039C53.6983 26.7021 54.9589 25.9396 56.6797 25.9396C59.5398 25.9396 61.0186 27.9799 61.0186 31.0036V39.5574H56.4372V32.0852C56.4372 30.6103 55.9044 29.7986 54.716 29.7986C53.5524 29.7986 52.8498 30.7824 52.8498 32.3065V39.5574H48.2679V26.3334H52.6316V28.152ZM66.3768 31.544H70.546C70.4738 29.9466 69.6011 29.1103 68.5101 29.1103C67.2495 29.1103 66.5465 30.0199 66.3768 31.544ZM61.8201 32.9201C61.8201 28.7912 64.5106 25.915 68.4136 25.915C70.3521 25.915 71.8551 26.5301 72.9946 27.6363C74.4976 29.1103 75.1764 31.4216 75.1279 34.1498H66.3768C66.5707 35.7963 67.347 36.6326 68.7283 36.6326C69.5288 36.6326 70.2314 36.2634 70.5223 35.3784H74.934C74.1577 38.4026 71.8552 39.9267 68.5829 39.9267C64.5348 39.9267 61.8201 37.1484 61.8201 32.9201ZM75.5866 35.3785H79.8286C79.9018 36.4601 80.5322 37.0992 81.6958 37.0992C82.5923 37.0992 83.2711 36.8293 83.2711 35.9198C83.2711 34.8381 81.8403 34.7648 80.2408 34.4935C78.1564 34.1744 75.7563 33.4861 75.7563 30.1679C75.7563 27.4638 78.3503 25.9397 81.3802 25.9397C85.1373 25.9397 87.101 27.4392 87.2707 30.0199H82.9555C82.8347 29.0371 82.1559 28.7667 81.4039 28.7667C80.7251 28.7667 80.0958 29.0371 80.0958 29.7987C80.0958 30.5366 81.2352 30.7333 82.6408 30.9295C84.8949 31.2736 87.7555 31.814 87.7555 35.4773C87.7555 38.6479 85.0646 40 81.6716 40C78.0109 40 75.6109 38.4021 75.5866 35.3785ZM88.2428 35.3785H92.4848C92.558 36.4601 93.1883 37.0992 94.3519 37.0992C95.2484 37.0992 95.9272 36.8293 95.9272 35.9198C95.9272 34.8381 94.4964 34.7648 92.8969 34.4935C90.8125 34.1744 88.4125 33.4861 88.4125 30.1679C88.4125 27.4638 91.0064 25.9397 94.0363 25.9397C97.7935 25.9397 99.7571 27.4392 99.9268 30.0199H95.6116C95.4909 29.0371 94.8121 28.7667 94.0601 28.7667C93.3813 28.7667 92.7519 29.0371 92.7519 29.7987C92.7519 30.5366 93.8913 30.7333 95.2969 30.9295C97.551 31.2736 100.412 31.814 100.412 35.4773C100.412 38.6479 97.7207 40 94.3277 40C90.667 40 88.267 38.4021 88.2428 35.3785ZM115.224 26.3331H119.805L115.878 39.5577H111.466L109.697 31.8397H109.648L107.879 39.5577H103.539L99.5879 26.3331H104.266L106.036 33.5595H106.085L107.757 26.3331H111.733L113.405 33.6086H113.454L115.224 26.3331ZM123.588 31.544H127.757C127.684 29.9466 126.812 29.1103 125.721 29.1103C124.461 29.1103 123.757 30.0199 123.588 31.544ZM119.031 32.9201C119.031 28.7912 121.721 25.915 125.624 25.915C127.563 25.915 129.066 26.5301 130.205 27.6363C131.708 29.1103 132.387 31.4216 132.339 34.1498H123.588C123.781 35.7963 124.558 36.6326 125.939 36.6326C126.739 36.6326 127.442 36.2634 127.733 35.3784H132.145C131.369 38.4026 129.066 39.9267 125.794 39.9267C121.745 39.9267 119.031 37.1484 119.031 32.9201ZM137.43 31.544H141.599C141.527 29.9466 140.654 29.1103 139.563 29.1103C138.303 29.1103 137.6 30.0199 137.43 31.544ZM132.873 32.9201C132.873 28.7912 135.564 25.915 139.466 25.915C141.405 25.915 142.908 26.5301 144.048 27.6363C145.551 29.1103 146.23 31.4216 146.181 34.1498H137.43C137.624 35.7963 138.4 36.6326 139.782 36.6326C140.581 36.6326 141.285 36.2634 141.576 35.3784H145.987C145.211 38.4026 142.908 39.9267 139.636 39.9267C135.588 39.9267 132.873 37.1484 132.873 32.9201ZM146.885 21.0237H151.394V30.3646L154.473 26.3331H159.514L155.394 31.2246L160 39.5576H154.812L152.339 34.7389L151.394 35.8451V39.5576H146.885V21.0237Z" fill="black"/>
</g>
<defs>
<clipPath id="clip0_64_4874">
<rect width="160" height="40" fill="white"/>
</clipPath>
</defs>
</svg>
