<svg width="200" height="26" viewBox="0 0 200 26" fill="none" xmlns="http://www.w3.org/2000/svg">
<path d="M173.586 0.434144C174.149 0.412057 174.713 0.377979 175.277 0.380504C175.277 7.84919 175.279 15.3185 175.276 22.7872C175.268 22.9986 175.326 23.2043 175.383 23.4069C175.524 23.5931 175.715 23.742 175.948 23.8013C176.363 23.9219 176.8 23.9351 177.23 23.9667C177.228 24.1143 177.228 24.262 177.229 24.4103C174.301 24.4116 171.375 24.4116 168.447 24.4097C168.444 24.2626 168.443 24.1156 168.443 23.9692C168.867 23.9364 169.296 23.9111 169.709 23.7969C169.882 23.7218 170.069 23.6423 170.176 23.4789C170.359 23.1987 170.334 22.8497 170.334 22.5316C170.334 16.0102 170.334 9.48934 170.334 2.96851C170.33 2.57978 170.369 2.17147 170.206 1.80609C170.104 1.5606 169.889 1.36939 169.64 1.2741C169.235 1.11507 168.79 1.09235 168.358 1.08982C168.36 0.938999 168.36 0.788174 168.362 0.637348C170.103 0.570455 171.844 0.499776 173.586 0.434144Z" fill="#231F20"/>
<path d="M189.478 0.448555C190.134 0.4454 190.79 0.360837 191.447 0.405643C191.44 1.93283 191.431 3.46127 191.467 4.98783C191.47 10.7293 191.468 16.4701 191.469 22.2116C191.471 22.5587 191.445 22.9196 191.573 23.2509C191.677 23.5254 191.911 23.7432 192.189 23.8473C192.589 24.0051 193.027 24.0284 193.454 24.0385C193.45 24.1622 193.45 24.2859 193.449 24.4096C191.184 24.455 188.918 24.5055 186.653 24.544C186.643 23.8984 186.647 23.2522 186.615 22.6072C185.889 23.5595 184.846 24.3193 183.647 24.5705C182.333 24.8299 180.906 24.6286 179.762 23.9268C178.852 23.3734 178.163 22.5195 177.709 21.5767C177.111 20.3405 176.872 18.966 176.811 17.6079C176.747 16.1672 176.869 14.7031 177.328 13.3268C177.737 12.0804 178.434 10.9016 179.439 10.0275C180.302 9.26647 181.388 8.75846 182.532 8.5704C183.889 8.34322 185.363 8.46375 186.553 9.19011C186.542 6.98894 186.555 4.78778 186.547 2.58661C186.541 2.17011 186.463 1.68987 186.096 1.42734C185.64 1.12254 185.066 1.12127 184.537 1.07521C184.536 0.93006 184.537 0.784284 184.542 0.639138C186.187 0.579186 187.832 0.512293 189.478 0.448555ZM183.439 9.7871C182.993 10.1904 182.738 10.7495 182.546 11.3036C182.244 12.1984 182.114 13.1381 182.022 14.0733C181.895 15.7898 181.858 17.524 182.096 19.2336C182.258 20.2426 182.494 21.2953 183.147 22.1182C183.594 22.7 184.386 23.0168 185.117 22.8584C185.71 22.7562 186.189 22.3454 186.551 21.8935C186.543 18.126 186.559 14.3573 186.543 10.5898C186.168 9.88681 185.399 9.40215 184.593 9.34724C184.169 9.3403 183.742 9.49365 183.439 9.7871Z" fill="#231F20"/>
<path d="M192.732 1.24313C192.804 1.00837 192.875 0.773617 192.945 0.537598C193.591 0.537598 194.236 0.538229 194.883 0.537598C194.819 0.771093 194.758 1.00585 194.7 1.23998C194.644 1.24187 194.591 1.24376 194.541 1.24566C194.515 1.08221 194.512 0.90551 194.418 0.76352C194.33 0.692209 194.206 0.703569 194.106 0.681481C193.945 1.26333 193.789 1.84643 193.622 2.42701C193.73 2.46362 193.841 2.49201 193.956 2.52041C193.937 2.54566 193.899 2.59677 193.879 2.62201C193.515 2.64663 193.15 2.62391 192.786 2.63085C192.797 2.58857 192.811 2.54692 192.827 2.50464C192.956 2.4775 193.166 2.4958 193.19 2.32226C193.346 1.77701 193.495 1.22925 193.642 0.682112C193.268 0.635413 193.064 0.969248 192.904 1.23871C192.844 1.24061 192.787 1.24187 192.732 1.24313Z" fill="#231F20"/>
<path d="M195.084 0.653608C195.095 0.624579 195.117 0.566521 195.129 0.537492C195.406 0.537492 195.685 0.53623 195.965 0.540016C196.013 1.03793 196.068 1.53458 196.125 2.03186C196.432 1.53205 196.744 1.03477 197.054 0.536861C197.359 0.539385 197.663 0.53055 197.969 0.546327C197.905 0.745113 197.595 0.632783 197.562 0.846084C197.416 1.38186 197.251 1.91385 197.134 2.45657C197.23 2.47613 197.33 2.4938 197.431 2.5121C197.414 2.5405 197.38 2.59604 197.363 2.6238C197.03 2.64337 196.697 2.62506 196.367 2.63201C196.374 2.60172 196.39 2.54113 196.399 2.51084C196.512 2.48244 196.675 2.47803 196.69 2.32783C196.839 1.8173 196.977 1.30424 197.118 0.791812C196.712 1.39322 196.342 2.01798 195.955 2.63138C195.884 2.63138 195.815 2.63201 195.75 2.63264C195.68 2.01987 195.618 1.4071 195.547 0.794967C195.426 1.29099 195.266 1.77943 195.162 2.27924C195.117 2.44521 195.321 2.4755 195.433 2.52788C195.414 2.55123 195.378 2.59793 195.36 2.62128C195.092 2.64652 194.822 2.62443 194.555 2.63201C194.561 2.60298 194.572 2.54555 194.578 2.51652C194.767 2.48307 194.938 2.37011 194.978 2.17322C195.109 1.70118 195.261 1.23104 195.35 0.748899C195.261 0.709773 195.17 0.683268 195.084 0.653608Z" fill="#231F20"/>
<path d="M113.886 1.01878C117.359 1.01752 120.832 1.0131 124.305 1.0213C124.307 1.19548 124.307 1.36965 124.311 1.54446C123.934 1.56465 123.554 1.60504 123.196 1.72558C122.781 1.84232 122.418 2.20897 122.388 2.64315C122.339 3.11834 122.453 3.58912 122.556 4.0498C123.819 8.86548 125.08 13.6812 126.344 18.4962C126.403 18.7341 126.456 18.9746 126.554 19.2011C127.636 15.9076 128.699 12.6065 129.772 9.30912C129.398 7.78951 129.049 6.26485 128.686 4.74271C128.502 4.08514 128.326 3.4181 128.004 2.80975C127.742 2.34781 127.339 1.93004 126.817 1.76029C126.476 1.63723 126.116 1.57475 125.756 1.54698C125.761 1.37029 125.761 1.19296 125.76 1.01562C129.287 1.0213 132.814 1.01247 136.341 1.02004C136.344 1.19422 136.343 1.36902 136.343 1.5432C135.666 1.59116 134.929 1.6164 134.357 2.01776C134.031 2.24495 133.926 2.65451 133.935 3.02747C133.969 3.6964 134.163 4.34198 134.32 4.98946C135.315 9.05101 136.314 13.1113 137.312 17.1716C137.484 17.8115 137.595 18.4691 137.808 19.0976C138.171 17.8418 138.456 16.5645 138.805 15.3049C139.429 12.8608 140.073 10.4223 140.696 7.9782C141.045 6.68514 141.398 5.38135 141.479 4.04033C141.467 3.64339 141.424 3.23762 141.254 2.87286C141.015 2.35664 140.501 2.043 139.98 1.84927C139.658 1.72242 139.325 1.62587 138.989 1.54383C138.988 1.36902 138.988 1.19485 138.992 1.02004C141.315 1.01247 143.64 1.02067 145.964 1.01626C145.96 1.19106 145.96 1.3665 145.969 1.54194C145.752 1.5899 145.541 1.65363 145.332 1.72242C144.892 1.86567 144.457 2.05436 144.1 2.34907C143.699 2.62106 143.427 3.03504 143.181 3.43893C142.703 4.27762 142.421 5.20844 142.139 6.12475C141.445 8.64461 140.809 11.1802 140.139 13.707C139.182 17.3666 138.224 21.0255 137.267 24.6851C136.201 24.6832 135.135 24.6819 134.069 24.6851C132.996 20.8659 131.91 17.0498 130.83 13.2331C130.625 12.4626 130.374 11.7028 130.195 10.9259C130.093 11.3803 129.914 11.8132 129.789 12.2606C128.919 14.9862 128.055 17.7137 127.189 20.4405C126.732 21.851 126.305 23.2715 125.832 24.6769C124.762 24.6946 123.691 24.6744 122.62 24.687C120.822 18.2261 119.056 11.7564 117.269 5.293C117.051 4.51868 116.871 3.72354 116.492 3.00601C116.304 2.63747 115.993 2.34655 115.667 2.09412C115.132 1.75965 114.499 1.64417 113.884 1.53941C113.884 1.36587 113.885 1.19232 113.886 1.01878Z" fill="#231F20"/>
<path d="M144.502 9.58784C146.216 8.49862 148.382 8.25818 150.361 8.62609C152.043 8.93216 153.611 9.86173 154.604 11.2375C155.781 12.8334 156.18 14.856 156.14 16.7946C156.102 18.183 155.834 19.5852 155.197 20.8347C155.151 20.918 155.107 21.002 155.065 21.0859C154.64 21.8325 154.1 22.5247 153.424 23.0681C152.105 24.1693 150.349 24.7133 148.627 24.6723C147.36 24.6988 146.083 24.4287 144.953 23.8607C144.225 23.4783 143.56 22.9741 143.022 22.3575C142.192 21.421 141.658 20.2586 141.376 19.0551C141.109 17.9053 141.062 16.7139 141.156 15.5407C141.273 14.2786 141.607 13.019 142.259 11.9171C142.805 10.9819 143.571 10.1646 144.502 9.58784ZM147.736 9.33794C147.181 9.66483 146.911 10.2808 146.742 10.8664C146.464 11.8698 146.395 12.9142 146.333 13.9479C146.269 15.4183 146.277 16.8918 146.307 18.3628C146.363 19.6016 146.427 20.8543 146.753 22.0584C146.908 22.5942 147.112 23.1463 147.526 23.5445C147.997 24.0103 148.763 24.11 149.371 23.8683C149.776 23.701 150.044 23.3344 150.238 22.9621C150.521 22.348 150.655 21.6804 150.748 21.0165C150.953 19.5518 150.952 18.0707 150.974 16.5959C150.954 15.4631 150.958 14.3291 150.848 13.2001C150.77 12.3608 150.658 11.5151 150.385 10.713C150.203 10.2113 149.941 9.69449 149.467 9.40294C148.951 9.08993 148.277 9.07794 147.736 9.33794Z" fill="#231F20"/>
<path d="M163.745 9.65396C164.466 8.92949 165.472 8.46187 166.513 8.46566C167.305 8.44862 168.141 8.69789 168.675 9.29678C169.545 10.2693 169.573 11.7769 168.966 12.8863C168.922 12.95 168.879 13.0138 168.842 13.0794C168.601 13.3905 168.299 13.6543 167.943 13.8323C167.265 14.1226 166.474 14.1099 165.793 13.8329C165.054 13.4927 164.54 12.7651 164.438 11.975C164.343 11.4336 164.465 10.889 164.581 10.3601C163.77 10.6744 163.182 11.3578 162.719 12.0564C162.585 12.2918 162.382 12.5222 162.411 12.808C162.414 15.8788 162.411 18.9496 162.412 22.021C162.423 22.4306 162.365 22.8553 162.507 23.251C162.607 23.5135 162.876 23.6567 163.134 23.7375C163.721 23.9129 164.339 23.9205 164.946 23.9666C164.942 24.1143 164.942 24.2619 164.942 24.4102C161.829 24.4109 158.717 24.4121 155.605 24.4096C155.603 24.2613 155.602 24.113 155.602 23.9653C156.11 23.9224 156.658 23.9312 157.113 23.6719C157.44 23.4731 157.472 23.061 157.49 22.7202C157.493 18.9332 157.49 15.1455 157.491 11.3585C157.491 10.8972 157.495 10.4138 157.286 9.98906C156.909 9.46275 156.201 9.41163 155.603 9.38513C155.602 9.23367 155.603 9.08284 155.605 8.93139C157.865 8.8544 160.124 8.74901 162.384 8.66949C162.384 9.62809 162.387 10.5867 162.382 11.5453C162.737 10.8536 163.171 10.1904 163.745 9.65396Z" fill="#231F20"/>
<path d="M55.1236 0.854476C55.8009 0.778747 56.5278 0.870252 57.0997 1.2571C57.7327 1.64836 58.1424 2.32676 58.2685 3.04302C58.3907 3.87098 58.2878 4.77341 57.7803 5.46884C57.4001 6.01472 56.7813 6.36307 56.1277 6.49181C55.3423 6.61739 54.4919 6.49749 53.8255 6.05132C53.2485 5.6386 52.8503 4.98797 52.768 4.29064C52.7017 3.76812 52.7139 3.2254 52.8805 2.72117C53.1893 1.75249 54.0776 0.95734 55.1236 0.854476Z" fill="#CD7B17"/>
<path d="M1.76468 1.61487C1.75889 1.4489 1.76983 1.28356 1.79877 1.12012C4.27854 1.13148 6.75831 1.12327 9.23807 1.12453C9.6652 1.11002 10.0917 1.16871 10.5188 1.12958C12.3515 1.12138 14.2118 1.07216 16.0058 1.50381C17.3573 1.8023 18.6946 2.40876 19.601 3.4658C20.4269 4.3941 20.7692 5.66444 20.7119 6.87924C20.6469 7.9508 20.2057 8.99585 19.4781 9.79793C18.5467 10.855 17.2203 11.4968 15.8649 11.8596C15.3195 12.0086 14.7547 12.0654 14.2021 12.1796C15.5465 12.3071 16.918 12.5021 18.1389 13.1035C19.1945 13.5894 20.1388 14.3542 20.717 15.3576C21.3835 16.4633 21.507 17.8081 21.3217 19.0589C21.121 20.5438 20.3234 21.9536 19.1063 22.8661C17.8262 23.855 16.2059 24.3093 14.6119 24.5062C13.2977 24.669 11.9713 24.5864 10.6507 24.6205C10.0306 24.5883 9.40982 24.6318 8.78844 24.6179C7.9953 24.582 7.20151 24.6482 6.40773 24.6059C5.33542 24.6205 4.26117 24.6306 3.18886 24.6034C2.71606 24.6179 2.24198 24.6388 1.76983 24.5984C1.76339 24.4286 1.76918 24.2595 1.78784 24.091C2.38993 24.062 3.0036 24.0026 3.56774 23.7805C3.92603 23.6373 4.24638 23.3608 4.37181 22.9942C4.44836 22.7626 4.48824 22.519 4.4921 22.276C4.49146 15.9862 4.4921 9.69633 4.49146 3.40648C4.48374 2.91551 4.32485 2.37279 3.87715 2.09827C3.24675 1.71206 2.48063 1.69691 1.76468 1.61487ZM9.97782 1.80987C9.97332 5.16842 9.97654 8.52696 9.97654 11.8855C10.8707 11.8666 11.7815 11.9593 12.6589 11.7404C13.5067 11.563 14.2812 11.0228 14.6768 10.2592C15.2011 9.27983 15.277 8.14832 15.3085 7.06415C15.3291 6.51701 15.2706 5.97366 15.2339 5.42905C15.1348 4.68565 14.9766 3.92837 14.5791 3.27774C14.2729 2.77099 13.7911 2.37468 13.2398 2.1456C12.7586 1.94429 12.237 1.85153 11.7178 1.81114C11.1383 1.80483 10.558 1.80987 9.97782 1.80987ZM9.97782 12.5898C9.97461 16.3598 9.97461 20.1298 9.97718 23.8998C10.7587 23.8954 11.5409 23.9187 12.3219 23.884C13.0391 23.814 13.7666 23.6208 14.3571 23.1999C14.9586 22.7651 15.3375 22.0899 15.533 21.3925C15.8321 20.3241 15.8321 19.2078 15.8707 18.1091C15.827 17.0546 15.7684 15.978 15.3883 14.979C15.1554 14.4319 14.8383 13.9056 14.3732 13.5168C13.9307 13.1192 13.3633 12.8832 12.7857 12.745C11.8677 12.5128 10.9144 12.6037 9.97782 12.5898Z" fill="#CD7B17"/>
<path d="M40.3004 10.4743C41.3708 9.19957 43.0979 8.6152 44.7434 8.59564C46.084 8.54767 47.4489 8.85753 48.5978 9.54539C48.6679 9.57631 48.7766 9.67413 48.8435 9.58389C49.1581 9.26204 49.4681 8.93578 49.7698 8.60195C49.9287 8.59753 50.0882 8.5969 50.2478 8.5969C50.2561 10.4112 50.2549 12.2262 50.2478 14.0405C50.0445 14.0399 49.8412 14.0392 49.6386 14.0329C49.3633 13.5584 49.0835 13.0857 48.776 12.6307C48.3508 11.9504 47.905 11.2802 47.3859 10.6649C47.0115 10.2112 46.5658 9.79656 46.0293 9.53403C45.4092 9.23869 44.6476 9.2103 44.0255 9.5151C43.4254 9.82748 43.0536 10.456 42.9674 11.1054C42.8702 11.5579 42.8998 12.0381 43.0838 12.466C43.2581 12.8755 43.6061 13.1854 43.9747 13.4284C45.1004 14.1074 46.3606 14.5176 47.5744 15.0123C48.6023 15.4389 49.6193 15.988 50.3295 16.8544C50.8286 17.4558 51.0853 18.2226 51.1348 18.9912C51.2416 20.2792 50.8782 21.6114 50.0728 22.6407C49.3967 23.5229 48.4319 24.1735 47.373 24.5339C46.2853 24.8898 45.1049 24.9775 43.9779 24.7642C42.8664 24.5591 41.7715 24.2202 40.7848 23.6712C40.4271 24.0246 40.1016 24.407 39.7549 24.7705C39.6128 24.9416 39.3638 24.8564 39.1708 24.8665C39.1689 22.8963 39.1683 20.9261 39.1708 18.9559C39.3973 18.9515 39.6243 18.9508 39.8501 18.9685C40.44 20.0325 41.1025 21.0618 41.8513 22.0254C42.474 22.8155 43.2021 23.5816 44.1619 23.9697C44.6276 24.166 45.1448 24.1799 45.644 24.1515C46.0968 24.1193 46.5368 23.9123 46.8353 23.5753C47.283 23.1127 47.4039 22.4476 47.4155 21.8323C47.4046 21.3369 47.2971 20.8137 46.9601 20.4282C46.5709 19.9416 46.0106 19.6387 45.46 19.3617C44.5183 18.8783 43.4903 18.5892 42.5364 18.1336C41.5425 17.7158 40.5706 17.1567 39.8913 16.313C39.2821 15.5368 39.1007 14.5195 39.1483 13.5615C39.1805 12.4489 39.5459 11.3206 40.3004 10.4743Z" fill="#CD7B17"/>
<path d="M83.0804 8.88653C84.2897 8.53755 85.591 8.49969 86.8222 8.75843C88.0168 9.026 89.1354 9.65833 89.9227 10.5847C90.6419 11.3748 91.0922 12.3644 91.381 13.376C91.6776 14.4254 91.7374 15.5247 91.6711 16.6077C88.7681 16.607 85.8651 16.6089 82.9627 16.607C82.9453 18.1197 83.0926 19.6765 83.7391 21.0687C84.1212 21.9118 84.776 22.6628 85.6457 23.0445C86.5707 23.4289 87.661 23.4472 88.5848 23.049C89.6834 22.5466 90.4779 21.5773 91.0484 20.5544C91.096 20.4786 91.134 20.3631 91.2511 20.396C91.4009 20.4382 91.538 20.5159 91.682 20.5764C91.6409 20.8421 91.4678 21.0598 91.3392 21.2889C90.6979 22.3592 89.8378 23.3292 88.7424 23.9678C87.7279 24.5894 86.5231 24.8911 85.3311 24.8696C84.0935 24.8917 82.8308 24.6777 81.7225 24.1211C80.5961 23.5923 79.6441 22.7189 79.0073 21.6676C78.391 20.6913 78.0507 19.5661 77.9002 18.4333C77.7265 16.8746 77.7928 15.2685 78.2765 13.7647C78.6535 12.6035 79.2646 11.4935 80.1503 10.6295C80.9454 9.80474 81.9753 9.2128 83.0804 8.88653ZM84.0639 9.79653C83.759 10.1809 83.5911 10.6472 83.4477 11.1073C83.0212 12.6408 83.0064 14.2405 82.9273 15.8169C83.6194 15.8844 84.3174 15.8396 85.0127 15.8516C85.5839 15.8182 86.1577 15.8908 86.7277 15.8226C86.8087 15.2427 86.7785 14.6545 86.8402 14.0727C86.8197 12.8168 86.7849 11.52 86.2999 10.3386C86.1095 9.86911 85.7454 9.39076 85.2038 9.31187C84.7651 9.23425 84.3277 9.46207 84.0639 9.79653Z" fill="#CD7B17"/>
<path d="M94.3832 9.88497C95.5109 8.9655 97.0077 8.56919 98.457 8.59633C99.7937 8.56919 101.128 8.94783 102.261 9.64264C102.613 9.32016 102.905 8.939 103.263 8.62283C103.405 8.57172 103.567 8.60516 103.718 8.59759C103.723 10.4106 103.723 12.2237 103.718 14.0374C103.524 14.038 103.33 14.038 103.137 14.0374C102.426 12.8939 101.744 11.7252 100.889 10.677C100.643 10.3722 100.357 10.1008 100.048 9.8591C99.5319 9.46026 98.8616 9.23245 98.2023 9.31385C97.6619 9.36749 97.1422 9.65147 96.8424 10.0995C96.5214 10.5798 96.3812 11.1648 96.4114 11.7359C96.414 12.2269 96.6263 12.7147 96.9891 13.0542C97.3538 13.4164 97.8247 13.6461 98.2839 13.8714C99.5068 14.4773 100.84 14.837 102.047 15.4762C102.854 15.9003 103.619 16.4683 104.087 17.2546C104.493 17.9046 104.653 18.6802 104.623 19.4362C104.662 20.7248 104.152 22.009 103.282 22.9695C102.145 24.2291 100.415 24.8892 98.7162 24.8735C98.0151 24.9031 97.3268 24.7447 96.6501 24.587C95.8235 24.3768 95.013 24.0846 94.2694 23.6688C93.8808 24.0644 93.5213 24.4854 93.1263 24.8747C92.9777 24.8728 92.8297 24.8716 92.6831 24.8709C92.6786 22.8982 92.6799 20.9261 92.6824 18.9534C92.8934 18.9528 93.1057 18.954 93.318 18.961C93.9709 20.09 94.665 21.2025 95.4916 22.2186C96.0814 22.926 96.7588 23.6151 97.6368 23.9673C98.0775 24.1509 98.5618 24.1799 99.0353 24.1566C99.6084 24.1503 100.169 23.8492 100.485 23.3804C100.799 22.9317 100.904 22.3713 100.895 21.8349C100.904 21.3433 100.79 20.8271 100.46 20.4434C100.111 19.9833 99.5878 19.6987 99.0842 19.4311C98.1077 18.9156 97.0367 18.6095 96.0377 18.1431C95.0265 17.6982 94.005 17.1479 93.3354 16.255C92.5834 15.2106 92.4991 13.843 92.7455 12.6225C92.959 11.5623 93.5328 10.576 94.3832 9.88497Z" fill="#CD7B17"/>
<path d="M109.396 8.80516C111.298 8.35079 113.4 8.5988 115.061 9.64637C115.412 9.31001 115.718 8.92885 116.081 8.60574C116.235 8.58554 116.393 8.60132 116.55 8.60952C116.549 10.3033 116.548 11.9965 116.55 13.6903C116.548 13.807 116.534 13.9237 116.521 14.0399C116.326 14.0386 116.131 14.038 115.937 14.038C115.212 12.8844 114.53 11.698 113.658 10.6428C113.319 10.2617 112.954 9.8887 112.504 9.63375C111.913 9.28792 111.159 9.19263 110.509 9.42613C109.973 9.61482 109.574 10.0749 109.384 10.5917C109.2 11.0303 109.186 11.515 109.224 11.9813C109.296 12.6269 109.776 13.1501 110.325 13.4732C111.262 14.0209 112.285 14.4059 113.301 14.7896C114.392 15.2155 115.492 15.7103 116.332 16.5389C116.832 17.0633 117.207 17.7152 117.341 18.4258C117.448 18.9035 117.416 19.3957 117.41 19.881C117.325 21.1356 116.742 22.3479 115.828 23.2263C114.471 24.5364 112.463 25.0697 110.598 24.8166C109.386 24.6317 108.189 24.2771 107.112 23.6946C107.041 23.6498 106.99 23.7552 106.942 23.7886C106.635 24.1187 106.338 24.4575 106.019 24.7762C105.875 24.9359 105.636 24.8507 105.45 24.8444C105.459 22.8843 105.452 20.9236 105.454 18.9628C105.674 18.9521 105.895 18.9527 106.117 18.9603C106.634 19.8886 107.215 20.7822 107.837 21.6461C108.522 22.541 109.278 23.4567 110.341 23.9319C110.948 24.1824 111.646 24.2695 112.287 24.0915C112.766 23.9552 113.185 23.6207 113.402 23.1777C113.714 22.5416 113.793 21.7938 113.607 21.111C113.456 20.6087 113.094 20.1871 112.663 19.8886C111.752 19.2714 110.704 18.8985 109.681 18.504C108.497 18.0049 107.253 17.5019 106.371 16.5439C105.544 15.6415 105.309 14.3579 105.459 13.1835C105.551 12.1303 105.983 11.0947 106.722 10.3185C107.425 9.55613 108.389 9.05821 109.396 8.80516Z" fill="#CD7B17"/>
<path d="M70.6142 8.99131C71.5077 8.65116 72.5009 8.60068 73.4381 8.77359C74.3239 8.94461 75.1337 9.49238 75.5737 10.2717C76.0047 11.0454 76.1366 11.9378 76.172 12.8074C76.1726 16.1748 76.1726 19.5415 76.1726 22.9089C76.1655 23.2591 76.2254 23.687 76.5727 23.8732C77.0217 24.113 77.5543 24.1041 78.0516 24.147C78.0522 24.3092 78.0516 24.4714 78.0464 24.6336C75.292 24.6304 72.5382 24.6285 69.7844 24.6342C69.7638 24.4727 69.7632 24.3099 69.7792 24.1483C70.171 24.1054 70.6341 24.0972 70.9094 23.7753C71.2092 23.4346 71.1732 22.9486 71.1912 22.5283C71.1758 19.7939 71.1886 17.0614 71.1899 14.327C71.1822 13.6095 71.2266 12.8818 71.0645 12.1763C70.9609 11.7775 70.7409 11.3641 70.3376 11.1918C69.7226 10.9318 68.9784 11.0682 68.4522 11.4588C68.0309 11.7806 67.6784 12.1839 67.3947 12.6269C67.3342 12.7178 67.3014 12.825 67.3091 12.9349C67.3117 16.111 67.3111 19.2872 67.3104 22.4634C67.313 22.9101 67.2712 23.4182 67.5799 23.7873C67.8726 24.0909 68.3268 24.1161 68.7249 24.1489C68.7249 24.3099 68.7236 24.4714 68.7179 24.6323C65.9647 24.6311 63.2116 24.6285 60.459 24.6336C60.4275 24.4714 60.4243 24.3067 60.4526 24.1445C60.9904 24.0966 61.5873 24.1186 62.0447 23.7905C62.3187 23.5589 62.3033 23.1695 62.3303 22.8464C62.3322 19.3333 62.3303 15.8201 62.3309 12.3076C62.3251 11.7118 62.3599 11.1111 62.2627 10.5204C62.2081 10.2787 62.0916 10.037 61.8813 9.89058C61.476 9.5965 60.9479 9.55864 60.4616 9.54476C60.4365 9.38636 60.4179 9.22733 60.4102 9.06767C61.083 8.99699 61.7584 8.9932 62.4345 8.97553C63.0964 8.90675 63.7648 8.95534 64.4273 8.88592C64.9612 8.84364 65.4983 8.87267 66.0329 8.83039C66.4491 8.7982 66.8672 8.79315 67.2847 8.78874C67.2911 9.77825 67.2905 10.7678 67.286 11.7579C67.5735 11.2808 67.9498 10.8618 68.3518 10.475C68.9835 9.82684 69.7606 9.31315 70.6142 8.99131Z" fill="#CD7B17"/>
<path d="M25.8957 8.84768C26.5975 8.8054 27.3013 8.81045 28.0037 8.80414C28.0134 12.6436 28.0063 16.4823 28.0082 20.3218C28.0417 20.9011 28.0957 21.5372 28.5003 21.996C28.9647 22.4958 29.7598 22.5469 30.3703 22.3008C31.0032 22.0414 31.4381 21.4854 31.7893 20.9295C31.851 20.8437 31.8671 20.7389 31.8652 20.6367C31.8626 17.3753 31.8658 14.1146 31.8633 10.8532C31.8671 10.4607 31.7693 10.0253 31.4361 9.77346C31.0283 9.45225 30.4841 9.44278 29.9907 9.37084C29.9914 9.22506 29.992 9.07929 29.9933 8.93414C30.5999 8.92467 31.2084 8.93288 31.8131 8.88492C32.9722 8.86346 34.132 8.87861 35.2893 8.81992C35.8007 8.81613 36.3114 8.80351 36.8228 8.80225C36.8588 9.10579 36.8434 9.41249 36.8447 9.71793C36.846 14.0938 36.8434 18.4702 36.8466 22.8467C36.8472 23.2007 36.9508 23.5976 37.2686 23.8046C37.6989 24.0842 38.2328 24.0867 38.7281 24.1353C38.7288 24.2849 38.7288 24.4344 38.7269 24.5846C37.0885 24.6023 35.4501 24.5941 33.8117 24.6313C33.1948 24.6282 32.5779 24.6238 31.9623 24.6547C31.9096 23.6866 32.0016 22.7148 31.9263 21.7473C31.2875 22.7671 30.4513 23.7074 29.3681 24.2861C28.344 24.856 27.1019 24.9633 25.9614 24.7342C24.9849 24.5442 24.1043 23.917 23.6385 23.0511C23.1786 22.1954 23.0654 21.2116 23.0493 20.258C23.0512 17.1027 23.0487 13.948 23.0506 10.7933C23.0487 10.4045 22.9451 9.97162 22.6106 9.72865C22.1964 9.43395 21.6631 9.427 21.1742 9.37463C21.1736 9.22822 21.1736 9.08244 21.1755 8.93666C21.7853 8.92657 22.3964 8.92783 23.0056 8.88302C23.9692 8.87356 24.9321 8.86409 25.8957 8.84768Z" fill="#CD7B17"/>
<path d="M55.7435 8.87929C56.5225 8.89759 57.297 8.79347 58.076 8.81429C58.0747 13.5549 58.076 18.2948 58.0753 23.0348C58.0625 23.3718 58.1744 23.7624 58.5082 23.9189C58.9624 24.1322 59.4821 24.1284 59.9742 24.1593C59.9768 24.3064 59.9787 24.4534 59.98 24.6011C57.0165 24.5986 54.0524 24.6131 51.0889 24.5935C51.0895 24.449 51.0902 24.3045 51.0914 24.16C51.5488 24.1404 52.0171 24.1196 52.4558 23.9789C52.7273 23.8886 52.9813 23.6867 53.0527 23.4046C53.1042 23.1799 53.1312 22.9496 53.1338 22.7192C53.1364 19.0161 53.1332 15.313 53.1357 11.6099C53.1486 11.2508 53.0991 10.8937 53.0573 10.5384C52.9916 10.1275 52.6604 9.78487 52.2596 9.66623C51.8807 9.54822 51.4793 9.53623 51.0869 9.50089C51.1204 9.369 51.0149 9.15759 51.1641 9.08123C52.1097 9.00109 53.0598 9.01497 54.0061 8.94682C54.5863 8.95439 55.1652 8.91652 55.7435 8.87929Z" fill="#CD7B17"/>
</svg>
