<svg width="200" height="37" viewBox="0 0 200 37" fill="none" xmlns="http://www.w3.org/2000/svg">
<g clip-path="url(#clip0_64_4849)">
<path d="M18.4667 0C8.26667 0 0 8.28159 0 18.5C0 28.7184 8.26667 37 18.4667 37C28.6667 37 36.9333 28.7184 36.9333 18.5C36.9333 8.28159 28.7 0 18.4667 0ZM10.1333 14.6931C10.8333 14.426 11.5333 14.2924 12.3 14.3258C15.8667 14.3258 18.7667 17.1977 18.8 20.7708C18.8 20.7708 18.8 20.7708 18.8 20.8042C18.8 21.5722 18.6667 22.3403 18.3667 23.0749C18.1333 23.5424 17.6667 23.843 17.1667 23.843C16.8 23.843 16.4667 23.676 16.2333 23.4422C16 23.2085 15.8333 22.8412 15.8333 22.5072C15.8333 22.3069 15.8667 22.1399 15.9333 21.9729C15.9333 21.9729 16 21.7392 16 21.7058C16.0667 21.4386 16.1 21.1381 16.1 20.8709C16.1 18.8005 14.4333 17.0975 12.3333 17.0975C12.0667 17.0975 11.7667 17.1309 11.5 17.1977L11.2333 17.2644C10.5667 17.5316 9.8 17.1977 9.53333 16.5298C9.3 15.7951 9.53333 15.0271 10.1333 14.6931ZM10.1333 26.982C9.96667 26.982 9.8 26.9486 9.66667 26.8818C7.4 25.8132 5.93333 23.5424 5.9 21.0379V10.2518C5.9 9.51715 6.5 8.88267 7.26667 8.88267C8.03333 8.88267 8.63333 9.48376 8.63333 10.2518V21.0045C8.63333 22.3736 9.36667 23.6092 10.5667 24.2771L10.7333 24.3773C11.2333 24.5776 11.5667 25.0451 11.5667 25.6128C11.5667 26.3809 10.9667 26.982 10.2 26.982C10.1667 26.982 10.1333 26.982 10.1 26.982H10.1333ZM26.1 27.583C24.3 27.5496 22.6333 26.6814 21.6 25.2121C20.5667 26.6814 18.8667 27.5496 17.1 27.583C13.9 27.583 11.2667 24.7446 11.2667 21.1715V20.37C11.2667 19.6354 11.8667 19.0343 12.6 19.0343C13.3333 19.0343 13.9333 19.6354 13.9333 20.37V21.1047C13.9333 23.1751 15.3667 24.8782 17.1 24.8782C18.8333 24.8782 20.2667 23.1751 20.2667 21.1047V15.361C20.2667 14.6264 20.8667 14.0253 21.6 14.0253C22.3333 14.0253 22.9333 14.6264 22.9333 15.361V21.1047C22.9333 23.1751 24.3667 24.8782 26.1 24.8782C27.8333 24.8782 29.2667 23.1751 29.2667 21.1047V15.361C29.2667 14.6264 29.8667 14.0253 30.6 14.0253C31.3333 14.0253 31.9333 14.6264 31.9333 15.361V21.1047C31.9333 24.6778 29.3333 27.583 26.1 27.583Z" fill="#0C1C5F"/>
<path d="M52.8667 8.31509C56.9 8.18152 60.2667 11.3873 60.3667 15.4279C60.3667 15.5949 60.3667 15.7618 60.3667 15.9288C60.4333 20.0696 57.1667 23.5091 53 23.6093C50.4 23.6761 47.9667 22.3738 46.5667 20.1698L46.3667 23.242H45.3V3.40625H46.6333V11.5877C48 9.51726 50.3667 8.2817 52.8667 8.31509ZM59 15.9622C59.1333 12.5895 56.5333 9.78441 53.1667 9.65083C53.0333 9.65083 52.9 9.65083 52.8 9.65083C49.3 9.65083 46.4667 12.4893 46.4667 15.9956C46.4667 19.5019 49.3 22.307 52.8 22.3404C56.1333 22.4072 58.9333 19.7691 59 16.3963C59 16.2294 59 16.0958 59 15.9622ZM68.3 23.5759C64.4667 23.5759 62.0333 21.038 62.0333 17.0976V8.61564H63.3667V16.9306C63.3667 20.2366 65.2333 22.2736 68.3 22.2736C71.3667 22.2736 73.2333 20.2366 73.2333 16.9306V8.61564H74.5667V17.0976C74.5667 21.0046 72.1333 23.5425 68.3 23.5759ZM81.8333 23.5759C78.4667 23.5759 76.3667 21.8729 76.2 19.1346H77.5C77.7 21.1716 79.3667 22.3404 81.9 22.3404C84.4 22.3404 86.1667 21.1716 86.1667 19.3349C86.1667 17.0642 83.9667 16.6635 81.7 16.2627C79.1667 15.8286 76.5 15.3277 76.5 12.3223C76.5 9.91798 78.6333 8.31509 81.8 8.31509C84.9667 8.31509 87 9.95138 87.1333 12.5561H85.8333C85.7 10.686 84.2 9.51726 81.7333 9.51726C79.2667 9.51726 77.7667 10.6192 77.7667 12.2889C77.7667 14.2925 79.7333 14.6265 81.9667 14.9938C84.5333 15.4279 87.4333 15.9288 87.4333 19.2682C87.4667 21.8729 85.2 23.5759 81.8333 23.5759ZM89.9 8.61564H91.2333V23.2754H89.9V8.61564ZM101.233 8.31509C104.733 8.31509 106.933 10.853 106.933 14.5597V23.2754H105.6V14.7934C105.6 11.4541 103.867 9.51726 100.9 9.51726C98 9.58405 95.7 11.9884 95.7333 14.8936V23.242H94.4V8.58224H95.3333L95.6 11.5543C96.7 9.51726 98.8333 8.2817 101.167 8.2817L101.233 8.31509ZM123.267 16.4297H110C110.167 19.8025 113 22.4072 116.367 22.2402C118.533 22.14 120.467 20.9044 121.467 19.001H122.867C121.767 21.7727 119.067 23.6093 116.067 23.5759C112 23.6093 108.7 20.3368 108.667 16.2627C108.667 16.1626 108.667 16.0624 108.667 15.9288C108.533 11.8548 111.7 8.44867 115.767 8.31509C115.867 8.31509 115.967 8.31509 116.067 8.31509C120.333 8.31509 123.3 11.6544 123.3 15.8954C123.3 16.0624 123.267 16.2627 123.267 16.4297ZM110 15.1942H121.967C121.833 12.0218 119.2 9.51726 116.033 9.55065C112.833 9.51726 110.167 12.0218 110 15.1942ZM130.067 23.5759C126.7 23.5759 124.6 21.8729 124.433 19.1346H125.733C125.933 21.1716 127.6 22.3404 130.133 22.3404C132.633 22.3404 134.4 21.1716 134.4 19.3349C134.4 17.0642 132.2 16.6635 129.933 16.2627C127.4 15.8286 124.733 15.3277 124.733 12.3557C124.733 9.95138 126.867 8.34849 130.033 8.34849C133.2 8.34849 135.233 9.98477 135.367 12.5895H134.1C133.967 10.7194 132.467 9.55065 130 9.55065C127.533 9.55065 126.033 10.6526 126.033 12.3223C126.033 14.3259 128 14.6599 130.233 15.0272C132.8 15.4613 135.7 15.9622 135.7 19.3016C135.7 21.8729 133.467 23.5759 130.067 23.5759ZM142.467 23.5759C139.133 23.5759 137 21.8729 136.833 19.1346H138.133C138.333 21.1716 140 22.3404 142.533 22.3404C145.033 22.3404 146.8 21.1716 146.8 19.3349C146.8 17.0642 144.6 16.6635 142.333 16.2627C139.8 15.8286 137.133 15.3277 137.133 12.3557C137.133 9.95138 139.267 8.34849 142.433 8.34849C145.6 8.34849 147.633 9.98477 147.767 12.5895H146.5C146.367 10.7194 144.867 9.55065 142.433 9.55065C140 9.55065 138.467 10.6526 138.467 12.3223C138.467 14.3259 140.433 14.6599 142.7 15.0272C145.233 15.4613 148.167 15.9622 148.167 19.3016C148.1 21.8729 145.867 23.5759 142.467 23.5759ZM170.6 8.61564L165.7 23.2754H163.267L159.5 14.3593L155.733 23.2754H153.3L148.4 8.61564H151.5L154.8 18.5001L159 8.7826H159.933L164.2 18.5669L167.6 8.61564H170.6ZM171.833 8.61564H174.833V23.2754H171.833V8.61564ZM185.5 8.54885V11.3873H183.9C181.4 11.3873 180.133 12.8232 180.133 15.4613V23.2754H177.133V8.64903H179.167L179.667 10.6526C180.7 9.25011 182.4 8.44867 184.133 8.58224H185.5V8.54885ZM200 15.9956C200 16.3295 199.967 16.6635 199.933 16.9974H188.067C188.3 19.2682 190.267 20.9712 192.533 20.871C194.133 20.9378 195.633 20.103 196.467 18.7339H199.633C198.3 22.6743 194.033 24.7781 190.1 23.4423C186.933 22.3738 184.867 19.3349 185 16.029C184.867 11.9216 188.1 8.48206 192.2 8.34849C192.3 8.34849 192.4 8.34849 192.5 8.34849C196.967 8.34849 199.967 11.8214 199.967 16.0624L200 15.9956ZM192.533 10.9866C190.4 10.9198 188.533 12.4225 188.133 14.5263H196.967C196.567 12.4225 194.7 10.9198 192.533 10.9866ZM47.4 32.8259H44.3L43.6667 34.3954H43L45.5333 28.251H46.1L48.7333 34.3954H48.0667L47.4 32.8259ZM44.5667 32.2582H47.2L45.8667 29.0859L44.5667 32.2582ZM56.4 32.7257C56.3667 33.6942 55.6 34.4288 54.6333 34.4288C54.6 34.4288 54.5667 34.4288 54.5333 34.4288H52.1667V28.2844H54.5667C55.4333 28.2176 56.1667 28.8855 56.2333 29.7537C56.2667 30.3882 55.9667 30.9559 55.4 31.2564C56.0333 31.4568 56.4333 32.0579 56.4 32.7257ZM52.7667 28.8521V30.8891H54.5667C55.1333 30.8891 55.6 30.4216 55.6 29.8539C55.6 29.2862 55.1333 28.8187 54.5667 28.8187H52.7667V28.8521ZM55.8 32.6256C55.8 31.9911 55.2667 31.4902 54.6333 31.4902H54.6H52.7667V33.7609H54.6C55.2333 33.7943 55.7667 33.2934 55.8 32.659C55.8 32.659 55.8 32.659 55.8 32.6256ZM61.5 33.7943V34.3954H57.9667V28.251H61.4V28.8187H58.5667V30.9225H61.1333V31.4902H58.5667V33.7943H61.5ZM65.1 31.8909H63.5333V34.3954H62.9V28.251H65.2C66.2333 28.2176 67.1 29.0191 67.1667 30.0543C67.1667 30.0877 67.1667 30.1211 67.1667 30.1544C67.1333 30.9893 66.5333 31.7239 65.7333 31.8909L67.2333 34.4288H66.5667L65.1 31.8909ZM63.5333 31.3232H65.2C65.9 31.39 66.5 30.8891 66.5667 30.1878C66.6333 29.4866 66.1333 28.8855 65.4333 28.8187C65.3667 28.8187 65.3 28.8187 65.2333 28.8187H63.5667L63.5333 31.3232ZM70.2 31.4902H69.2667V34.3954H68.6667V28.251H69.2667V30.9225H70.2L72.3 28.251H73.1L70.7667 31.1896L73.3 34.3954H72.5L70.2 31.4902ZM73.7333 32.5254H74.3667C74.3667 33.3602 75.0333 33.8611 75.9667 33.8611C76.9 33.8611 77.4667 33.3936 77.4667 32.6924C77.4667 31.9911 76.7 31.7573 75.8667 31.5236C75.0333 31.2898 73.8667 31.0561 73.8667 29.8539C73.8667 28.8187 74.6667 28.1842 75.9 28.1842C76.8667 28.0507 77.7667 28.7185 77.9 29.6869C77.9 29.7871 77.9333 29.8539 77.9333 29.9541H77.3333C77.3333 29.2194 76.7667 28.7519 75.9333 28.7519C75.1 28.7519 74.5 29.1526 74.5 29.8205C74.5 30.4884 75.2667 30.7555 76.1 30.9559C76.9333 31.1229 78.1333 31.4234 78.1333 32.6924C78.1333 33.9279 77.2 34.4956 76 34.4956C74.9333 34.6292 73.9333 33.8945 73.7667 32.7925C73.7667 32.6923 73.7333 32.6256 73.7333 32.5254ZM84.2 28.251V34.3954H83.5667V31.5236H80.1667V34.3954H79.5667V28.251H80.1667V30.9225H83.6V28.251H84.2ZM86.1 28.251H86.7333V34.3954H86.1V28.251ZM90.7667 31.8909H89.2V34.3954H88.5667V28.251H90.8667C91.9 28.2176 92.7667 29.0191 92.8333 30.0543C92.8333 30.0877 92.8333 30.1211 92.8333 30.1544C92.8333 31.0227 92.2333 31.7573 91.4 31.9243L92.9333 34.4288H92.2333L90.7667 31.8909ZM89.2 31.3232H90.8667C91.5667 31.39 92.1667 30.8891 92.2333 30.1878C92.3 29.4866 91.8 28.8855 91.1 28.8187C91.0333 28.8187 90.9667 28.8187 90.9 28.8187H89.2333V31.3232H89.2ZM97.9 33.7943V34.3954H94.3667V28.251H97.8V28.8187H94.9667V30.9225H97.5333V31.4902H94.9667V33.7943H97.9ZM106.5 28.251V34.3954H105.9V31.5236H102.467V34.3954H101.833V28.251H102.433V30.9225H105.867V28.251H106.5ZM112.1 32.8259H109L108.333 34.3954H107.7L110.233 28.251H110.8L113.4 34.3954H112.733L112.1 32.8259ZM109.233 32.2582H111.867L110.533 29.0859L109.233 32.2582ZM117.8 28.8187H115.933V34.3954H115.333V28.8187H113.467V28.251H117.9L117.8 28.8187ZM123.667 28.251V34.3954H123.033V31.5236H119.667V34.3954H119.033V28.251H119.667V30.9225H123.033V28.251H123.667ZM129.233 32.8259H126.167L125.533 34.3954H124.9L127.433 28.251H128L130.6 34.3954H129.933L129.233 32.8259ZM126.433 32.2582H129.067L127.7 29.0859L126.433 32.2582ZM139.333 28.251L137.367 34.3954H136.833L135.067 29.6869L133.333 34.3954H132.8L130.8 28.251H131.433L133.067 33.3936L134.933 28.418H135.2L137.067 33.3936L138.667 28.251H139.333ZM143.967 32.8259H140.833L140.2 34.3954H139.533L142.067 28.251H142.7L145.3 34.3954H144.567L143.967 32.8259ZM141.1 32.2582H143.733L142.4 29.0859L141.1 32.2582ZM148.133 31.9577V34.3954H147.5V31.9577L145.233 28.251H145.9L147.833 31.39L149.767 28.251H150.433L148.133 31.9577ZM153.533 31.3232C153.467 29.6535 154.767 28.2176 156.433 28.1508C156.5 28.1508 156.6 28.1508 156.667 28.1508C158 28.1174 159.2 28.9857 159.533 30.2546H158.9C158.567 29.3196 157.633 28.7185 156.633 28.7519C155.233 28.7519 154.067 29.8873 154.067 31.3232C154.067 32.7257 155.2 33.8945 156.633 33.8945C157.667 33.9279 158.6 33.2934 158.933 32.2916H159.567C159.233 33.6274 158 34.529 156.633 34.4956C154.967 34.5624 153.533 33.26 153.467 31.5904C153.533 31.4902 153.533 31.4234 153.533 31.3232ZM160.5 31.3232C160.467 29.5534 161.9 28.084 163.667 28.084C165.433 28.0507 166.9 29.4866 166.9 31.2564C166.9 33.0263 165.5 34.4956 163.733 34.4956H163.7C162 34.5624 160.567 33.2266 160.5 31.4902C160.5 31.4234 160.5 31.39 160.5 31.3232ZM166.267 31.3232C166.267 29.8873 165.133 28.7519 163.7 28.7519C162.267 28.7519 161.133 29.8873 161.133 31.3232C161.133 32.7591 162.267 33.8945 163.7 33.8945C165.067 33.9279 166.233 32.8593 166.267 31.4568C166.267 31.4234 166.267 31.3566 166.267 31.3232ZM174.767 34.3954L173.9 29.3196L171.7 34.1951H171.533L169.333 29.3196L168.5 34.362H167.867L168.933 28.2176H169.533L171.667 32.9929L173.8 28.2176H174.4L175.433 34.362L174.767 34.3954ZM181 30.1878C181.033 31.223 180.233 32.0913 179.2 32.1581C179.133 32.1581 179.067 32.1581 179 32.1581H177.467V34.4288H176.867V28.2844H179.033C180.067 28.2176 180.967 29.0191 181.033 30.0543C181 30.0543 181 30.1211 181 30.1878ZM180.367 30.1878C180.367 29.4532 179.767 28.8521 179.033 28.8521C179 28.8521 178.967 28.8521 178.967 28.8521H177.467V31.5236H178.967C179.7 31.557 180.333 30.9893 180.367 30.2546C180.367 30.2212 180.367 30.1878 180.367 30.1878ZM185.6 32.8259H182.5L181.833 34.3954H181.2L183.733 28.251H184.3L186.9 34.3954H186.233L185.6 32.8259ZM182.733 32.2582H185.367L184.067 29.0859L182.733 32.2582ZM192.933 28.251V34.3954H192.433L188.767 29.3196V34.3954H188.167V28.251H188.733L192.4 33.26V28.251H192.933ZM197.133 31.9577V34.3954H196.5V31.9577L194.233 28.251H194.9L196.833 31.39L198.767 28.251H199.433L197.133 31.9577Z" fill="#0C1C5F"/>
</g>
<defs>
<clipPath id="clip0_64_4849">
<rect width="200" height="37" fill="white"/>
</clipPath>
</defs>
</svg>
