<svg width="70" height="62" viewBox="0 0 70 62" fill="none" xmlns="http://www.w3.org/2000/svg">
<g clip-path="url(#clip0_64_4880)">
<path d="M36.4937 24.9463C37.426 35.0036 66.46 34.4741 59.8009 62.0002C50.7425 52.7367 36.4937 56.1773 36.4937 46.1892V24.9463Z" fill="url(#paint0_linear_64_4880)"/>
<path d="M36.4937 46.189C40.3505 31.3045 75.5166 46.1232 69.2562 0.00341797C59.2619 15.4174 36.4937 8.27117 36.4937 24.9461V46.189Z" fill="url(#paint1_linear_64_4880)"/>
<path d="M33.5073 46.189C29.6504 31.3045 -5.51574 46.1232 0.743885 0.00341797C10.7372 15.4209 33.5073 8.27459 33.5073 24.9495V46.189Z" fill="url(#paint2_linear_64_4880)"/>
<path d="M33.5071 24.9463C32.5747 35.0036 3.54079 34.4741 10.1999 62.0002C19.2566 52.7367 33.5071 56.1773 33.5071 46.1892V24.9463Z" fill="black"/>
</g>
<defs>
<linearGradient id="paint0_linear_64_4880" x1="17.0286" y1="40.6708" x2="34.4251" y2="60.8157" gradientUnits="userSpaceOnUse">
<stop stop-color="#00659D"/>
<stop offset="1" stop-color="#24BFD3"/>
</linearGradient>
<linearGradient id="paint1_linear_64_4880" x1="11.1814" y1="23.0932" x2="44.6886" y2="23.0932" gradientUnits="userSpaceOnUse">
<stop stop-color="#20B6CD"/>
<stop offset="1" stop-color="#00659D"/>
</linearGradient>
<linearGradient id="paint2_linear_64_4880" x1="-160.869" y1="23.0932" x2="-127.362" y2="23.0932" gradientUnits="userSpaceOnUse">
<stop stop-color="#24BFD3"/>
<stop offset="1" stop-color="#00659D"/>
</linearGradient>
<clipPath id="clip0_64_4880">
<rect width="70" height="62" fill="white"/>
</clipPath>
</defs>
</svg>
