<svg width="200" height="67" viewBox="0 0 200 67" fill="none" xmlns="http://www.w3.org/2000/svg">
<path fill-rule="evenodd" clip-rule="evenodd" d="M0 51.3292H2.3397C3.41055 51.3292 4.50301 51.5852 4.50301 52.8632C4.50301 53.3457 4.26062 53.8236 3.77698 53.9772V54.0216C4.37783 54.2333 4.75906 54.6726 4.75906 55.3326C4.75906 56.4706 3.70301 56.8575 2.73572 56.8575H0V51.3292ZM2.0461 53.4561C2.33856 53.4561 2.66858 53.4276 2.66858 53.0452C2.66858 52.6344 2.29532 52.6629 2.00172 52.6629H1.86175V53.4561H2.0461ZM1.86288 55.5386H2.09048C2.4205 55.5386 2.89731 55.5295 2.89731 55.0765C2.89731 54.6145 2.38408 54.6213 2.06203 54.6213H1.86402V55.5386H1.86288ZM16.2857 51.3292V54.5986C16.2857 56.2123 15.2741 56.9451 13.7264 56.9451C12.1799 56.9451 11.1671 56.2111 11.1671 54.5986V51.3292H13.1767V54.4097C13.1767 54.841 13.1915 55.2233 13.7264 55.2233C14.2612 55.2233 14.276 54.841 14.276 54.4097V51.3292H16.2857ZM23.29 54.8785L23.3925 54.9582C23.7521 55.2359 24.1845 55.4646 24.6477 55.4646C24.8457 55.4646 25.1609 55.3827 25.1609 55.1334C25.1609 54.8842 24.8969 54.8626 24.7137 54.8262L24.3108 54.7534C23.5267 54.6134 22.8667 54.1514 22.8667 53.2865C22.8667 51.9733 24.0616 51.2392 25.2644 51.2392C25.8949 51.2392 26.4741 51.3952 27.0169 51.724L26.4741 53.1397C26.1293 52.9041 25.7401 52.722 25.3088 52.722C25.1324 52.722 24.8764 52.7869 24.8764 53.0157C24.8764 53.2205 25.1256 53.2489 25.2792 53.2865L25.7333 53.3889C26.5845 53.5801 27.2002 54.033 27.2002 54.9741C27.2002 56.2919 25.9973 56.9451 24.8024 56.9451C24.0654 56.9354 23.3396 56.7633 22.6767 56.441L23.29 54.8785ZM33.6218 51.3292H35.6315V56.8564H33.6218V51.3292ZM42.3194 51.3292H44.2483L46.0509 54.3937H46.1101C46.0293 53.9317 45.9405 53.4561 45.9405 52.9872V51.3292H47.8614V56.8564H45.9405L44.1732 53.9534H44.1152C44.1812 54.3357 44.2392 54.693 44.2392 55.0606V56.8564H42.3183L42.3194 51.3292ZM54.4993 51.3292H58.2171V52.8404H56.5227V53.3673H58.0703V54.8046H56.5227V55.3474H58.2752V56.8564H54.4993V51.3292ZM65.2192 54.8785L65.3227 54.9582C65.6812 55.2359 66.1147 55.4646 66.5768 55.4646C66.7748 55.4646 67.09 55.3827 67.09 55.1334C67.09 54.8842 66.826 54.8626 66.6416 54.8262L66.2388 54.7534C65.4547 54.6134 64.7947 54.1514 64.7947 53.2865C64.7947 51.9733 65.9907 51.2392 67.1924 51.2392C67.8229 51.2392 68.4021 51.3952 68.9449 51.724L68.4021 53.1397C68.0573 52.9041 67.6681 52.722 67.2357 52.722C67.0593 52.722 66.8032 52.7869 66.8032 53.0157C66.8032 53.2205 67.0524 53.2489 67.2061 53.2865L67.6613 53.3889C68.5125 53.5801 69.1281 54.033 69.1281 54.9741C69.1281 56.2919 67.9253 56.9451 66.7304 56.9451C66.0339 56.9451 65.2283 56.7539 64.6046 56.441L65.2192 54.8785ZM75.8673 54.8785L75.9697 54.9582C76.3282 55.2359 76.7606 55.4646 77.2238 55.4646C77.4218 55.4646 77.737 55.3827 77.737 55.1334C77.737 54.8842 77.473 54.8626 77.2886 54.8262L76.8858 54.7534C76.1006 54.6134 75.4405 54.1514 75.4405 53.2865C75.4405 51.9733 76.6354 51.2392 77.8383 51.2392C78.4687 51.2392 79.048 51.3952 79.5908 51.724L79.048 53.1397C78.7032 52.9041 78.314 52.722 77.8827 52.722C77.7063 52.722 77.4502 52.7869 77.4502 53.0157C77.4502 53.2205 77.6994 53.2489 77.8531 53.2865L78.3083 53.3889C79.1595 53.5801 79.7751 54.033 79.7751 54.9741C79.7751 56.2919 78.5723 56.9451 77.3774 56.9451C76.64 56.9354 75.9138 56.7633 75.2505 56.441L75.8673 54.8785ZM95.2358 51.3838H97.2455V56.9144H95.2358V51.3838ZM103.961 51.3838H106.388C107.635 51.3838 108.69 51.9129 108.69 53.3058C108.69 54.1411 108.368 54.4928 107.622 54.7442V54.7864C107.724 54.8683 107.848 54.9548 107.957 55.1175L109.16 56.9132H106.844L105.965 55.1391H105.927V56.9132H103.962L103.961 51.3838ZM105.926 53.8339H106.066C106.397 53.8339 106.726 53.7826 106.726 53.3741C106.726 52.9474 106.426 52.8962 106.082 52.8962H105.926V53.8339ZM115.627 54.9343L115.73 55.0162C116.089 55.2939 116.523 55.5204 116.986 55.5204C117.184 55.5204 117.499 55.4407 117.499 55.1915C117.499 54.9423 117.235 54.9206 117.05 54.8831L116.647 54.8102C115.863 54.6703 115.202 54.2105 115.202 53.3434C115.202 52.0324 116.398 51.2984 117.6 51.2984C118.229 51.2984 118.808 51.4521 119.351 51.7832L118.808 53.1966C118.463 52.9633 118.074 52.7789 117.644 52.7789C117.466 52.7789 117.21 52.8461 117.21 53.0725C117.21 53.2797 117.46 53.3081 117.613 53.3434L118.068 53.4481C118.92 53.637 119.535 54.0922 119.535 55.031C119.535 56.3511 118.332 57.002 117.138 57.002C116.4 56.9934 115.674 56.8212 115.011 56.4979L115.627 54.9343ZM125.565 51.3838H129.789V53.1829L128.681 53.1317V56.9144H126.672V53.1317L125.565 53.1829V51.3838ZM34.6096 47.0594C34.7587 47.0594 34.9017 47.0002 35.0071 46.8948C35.1125 46.7893 35.1717 46.6464 35.1717 46.4973C35.1717 46.3482 35.1125 46.2052 35.0071 46.0997C34.9017 45.9943 34.7587 45.9351 34.6096 45.9351C34.4605 45.9351 34.3175 45.9943 34.2121 46.0997C34.1066 46.2052 34.0474 46.3482 34.0474 46.4973C34.0474 46.6464 34.1066 46.7893 34.2121 46.8948C34.3175 47.0002 34.4605 47.0594 34.6096 47.0594ZM38.2329 47.0594C38.3069 47.0594 38.3802 47.0449 38.4485 47.0165C38.5168 46.9882 38.5789 46.9467 38.6313 46.8944C38.6836 46.8421 38.7251 46.78 38.7534 46.7117C38.7817 46.6433 38.7962 46.5701 38.7962 46.4961C38.7962 46.4221 38.7817 46.3489 38.7534 46.2806C38.7251 46.2122 38.6836 46.1501 38.6313 46.0978C38.5789 46.0455 38.5168 46.004 38.4485 45.9757C38.3802 45.9474 38.3069 45.9328 38.2329 45.9328C38.0835 45.9328 37.9403 45.9922 37.8346 46.0978C37.729 46.2034 37.6696 46.3467 37.6696 46.4961C37.6696 46.6455 37.729 46.7888 37.8346 46.8944C37.9403 47.0001 38.0835 47.0594 38.2329 47.0594ZM41.8563 47.0594C41.9303 47.0594 42.0035 47.0449 42.0718 47.0165C42.1402 46.9882 42.2023 46.9467 42.2546 46.8944C42.3069 46.8421 42.3484 46.78 42.3767 46.7117C42.405 46.6433 42.4196 46.5701 42.4196 46.4961C42.4196 46.4221 42.405 46.3489 42.3767 46.2806C42.3484 46.2122 42.3069 46.1501 42.2546 46.0978C42.2023 46.0455 42.1402 46.004 42.0718 45.9757C42.0035 45.9474 41.9303 45.9328 41.8563 45.9328C41.7069 45.9328 41.5636 45.9922 41.458 46.0978C41.3523 46.2034 41.293 46.3467 41.293 46.4961C41.293 46.6455 41.3523 46.7888 41.458 46.8944C41.5636 47.0001 41.7069 47.0594 41.8563 47.0594ZM45.4796 47.0594C45.5536 47.0594 45.6269 47.0449 45.6952 47.0165C45.7635 46.9882 45.8256 46.9467 45.8779 46.8944C45.9303 46.8421 45.9717 46.78 46.0001 46.7117C46.0284 46.6433 46.0429 46.5701 46.0429 46.4961C46.0429 46.4221 46.0284 46.3489 46.0001 46.2806C45.9717 46.2122 45.9303 46.1501 45.8779 46.0978C45.8256 46.0455 45.7635 46.004 45.6952 45.9757C45.6269 45.9474 45.5536 45.9328 45.4796 45.9328C45.3302 45.9328 45.187 45.9922 45.0813 46.0978C44.9757 46.2034 44.9163 46.3467 44.9163 46.4961C44.9163 46.6455 44.9757 46.7888 45.0813 46.8944C45.187 47.0001 45.3302 47.0594 45.4796 47.0594ZM49.103 47.0594C49.177 47.0594 49.2502 47.0449 49.3186 47.0165C49.3869 46.9882 49.449 46.9467 49.5013 46.8944C49.5536 46.8421 49.5951 46.78 49.6234 46.7117C49.6517 46.6433 49.6663 46.5701 49.6663 46.4961C49.6663 46.4221 49.6517 46.3489 49.6234 46.2806C49.5951 46.2122 49.5536 46.1501 49.5013 46.0978C49.449 46.0455 49.3869 46.004 49.3186 45.9757C49.2502 45.9474 49.177 45.9328 49.103 45.9328C48.9536 45.9328 48.8103 45.9922 48.7047 46.0978C48.599 46.2034 48.5397 46.3467 48.5397 46.4961C48.5397 46.6455 48.599 46.7888 48.7047 46.8944C48.8103 47.0001 48.9536 47.0594 49.103 47.0594ZM52.7263 47.0594C52.8754 47.0594 53.0184 47.0002 53.1238 46.8948C53.2293 46.7893 53.2885 46.6464 53.2885 46.4973C53.2885 46.3482 53.2293 46.2052 53.1238 46.0997C53.0184 45.9943 52.8754 45.9351 52.7263 45.9351C52.5772 45.9351 52.4342 45.9943 52.3288 46.0997C52.2234 46.2052 52.1642 46.3482 52.1642 46.4973C52.1642 46.6464 52.2234 46.7893 52.3288 46.8948C52.4342 47.0002 52.5772 47.0594 52.7263 47.0594ZM56.3497 47.0594C56.4237 47.0594 56.4969 47.0449 56.5652 47.0165C56.6336 46.9882 56.6957 46.9467 56.748 46.8944C56.8003 46.8421 56.8418 46.78 56.8701 46.7117C56.8984 46.6433 56.913 46.5701 56.913 46.4961C56.913 46.4221 56.8984 46.3489 56.8701 46.2806C56.8418 46.2122 56.8003 46.1501 56.748 46.0978C56.6957 46.0455 56.6336 46.004 56.5652 45.9757C56.4969 45.9474 56.4237 45.9328 56.3497 45.9328C56.2003 45.9328 56.057 45.9922 55.9514 46.0978C55.8457 46.2034 55.7864 46.3467 55.7864 46.4961C55.7864 46.6455 55.8457 46.7888 55.9514 46.8944C56.057 47.0001 56.2003 47.0594 56.3497 47.0594ZM59.973 47.0594C60.047 47.0594 60.1203 47.0449 60.1886 47.0165C60.2569 46.9882 60.319 46.9467 60.3713 46.8944C60.4237 46.8421 60.4651 46.78 60.4935 46.7117C60.5218 46.6433 60.5363 46.5701 60.5363 46.4961C60.5363 46.4221 60.5218 46.3489 60.4935 46.2806C60.4651 46.2122 60.4237 46.1501 60.3713 46.0978C60.319 46.0455 60.2569 46.004 60.1886 45.9757C60.1203 45.9474 60.047 45.9328 59.973 45.9328C59.8236 45.9328 59.6804 45.9922 59.5747 46.0978C59.4691 46.2034 59.4097 46.3467 59.4097 46.4961C59.4097 46.6455 59.4691 46.7888 59.5747 46.8944C59.6804 47.0001 59.8236 47.0594 59.973 47.0594ZM63.5964 47.0594C63.6704 47.0594 63.7436 47.0449 63.812 47.0165C63.8803 46.9882 63.9424 46.9467 63.9947 46.8944C64.047 46.8421 64.0885 46.78 64.1168 46.7117C64.1451 46.6433 64.1597 46.5701 64.1597 46.4961C64.1597 46.4221 64.1451 46.3489 64.1168 46.2806C64.0885 46.2122 64.047 46.1501 63.9947 46.0978C63.9424 46.0455 63.8803 46.004 63.812 45.9757C63.7436 45.9474 63.6704 45.9328 63.5964 45.9328C63.447 45.9328 63.3037 45.9922 63.1981 46.0978C63.0924 46.2034 63.0331 46.3467 63.0331 46.4961C63.0331 46.6455 63.0924 46.7888 63.1981 46.8944C63.3037 47.0001 63.447 47.0594 63.5964 47.0594ZM67.2209 47.0594C67.2948 47.0594 67.3681 47.0449 67.4364 47.0165C67.5048 46.9882 67.5669 46.9467 67.6192 46.8944C67.6715 46.8421 67.713 46.78 67.7413 46.7117C67.7696 46.6433 67.7842 46.5701 67.7842 46.4961C67.7842 46.4221 67.7696 46.3489 67.7413 46.2806C67.713 46.2122 67.6715 46.1501 67.6192 46.0978C67.5669 46.0455 67.5048 46.004 67.4364 45.9757C67.3681 45.9474 67.2948 45.9328 67.2209 45.9328C67.0715 45.9328 66.9282 45.9922 66.8226 46.0978C66.7169 46.2034 66.6576 46.3467 66.6576 46.4961C66.6576 46.6455 66.7169 46.7888 66.8226 46.8944C66.9282 47.0001 67.0715 47.0594 67.2209 47.0594ZM70.8442 47.0594C70.9933 47.0597 71.1364 47.0008 71.2421 46.8956C71.3477 46.7904 71.4072 46.6475 71.4075 46.4984C71.4078 46.3493 71.3489 46.2062 71.2437 46.1006C71.1385 45.9949 70.9956 45.9354 70.8465 45.9351C70.6974 45.9348 70.5543 45.9937 70.4486 46.0989C70.343 46.2042 70.2835 46.347 70.2832 46.4961C70.2829 46.6452 70.3418 46.7883 70.447 46.894C70.5523 46.9996 70.6951 47.0591 70.8442 47.0594ZM74.4676 47.0594C74.5415 47.0594 74.6148 47.0449 74.6831 47.0165C74.7515 46.9882 74.8136 46.9467 74.8659 46.8944C74.9182 46.8421 74.9597 46.78 74.988 46.7117C75.0163 46.6433 75.0309 46.5701 75.0309 46.4961C75.0309 46.4221 75.0163 46.3489 74.988 46.2806C74.9597 46.2122 74.9182 46.1501 74.8659 46.0978C74.8136 46.0455 74.7515 46.004 74.6831 45.9757C74.6148 45.9474 74.5415 45.9328 74.4676 45.9328C74.3182 45.9328 74.1749 45.9922 74.0692 46.0978C73.9636 46.2034 73.9043 46.3467 73.9043 46.4961C73.9043 46.6455 73.9636 46.7888 74.0692 46.8944C74.1749 47.0001 74.3182 47.0594 74.4676 47.0594ZM78.0909 47.0594C78.1649 47.0594 78.2381 47.0449 78.3065 47.0165C78.3748 46.9882 78.4369 46.9467 78.4892 46.8944C78.5415 46.8421 78.583 46.78 78.6113 46.7117C78.6396 46.6433 78.6542 46.5701 78.6542 46.4961C78.6542 46.4221 78.6396 46.3489 78.6113 46.2806C78.583 46.2122 78.5415 46.1501 78.4892 46.0978C78.4369 46.0455 78.3748 46.004 78.3065 45.9757C78.2381 45.9474 78.1649 45.9328 78.0909 45.9328C77.9415 45.9328 77.7982 45.9922 77.6926 46.0978C77.587 46.2034 77.5276 46.3467 77.5276 46.4961C77.5276 46.6455 77.587 46.7888 77.6926 46.8944C77.7982 47.0001 77.9415 47.0594 78.0909 47.0594ZM81.7143 47.0594C81.7882 47.0594 81.8615 47.0449 81.9298 47.0165C81.9982 46.9882 82.0603 46.9467 82.1126 46.8944C82.1649 46.8421 82.2064 46.78 82.2347 46.7117C82.263 46.6433 82.2776 46.5701 82.2776 46.4961C82.2776 46.4221 82.263 46.3489 82.2347 46.2806C82.2064 46.2122 82.1649 46.1501 82.1126 46.0978C82.0603 46.0455 81.9982 46.004 81.9298 45.9757C81.8615 45.9474 81.7882 45.9328 81.7143 45.9328C81.5649 45.9328 81.4216 45.9922 81.3159 46.0978C81.2103 46.2034 81.151 46.3467 81.151 46.4961C81.151 46.6455 81.2103 46.7888 81.3159 46.8944C81.4216 47.0001 81.5649 47.0594 81.7143 47.0594ZM85.3376 47.0594C85.4116 47.0594 85.4848 47.0449 85.5532 47.0165C85.6215 46.9882 85.6836 46.9467 85.7359 46.8944C85.7882 46.8421 85.8297 46.78 85.858 46.7117C85.8863 46.6433 85.9009 46.5701 85.9009 46.4961C85.9009 46.4221 85.8863 46.3489 85.858 46.2806C85.8297 46.2122 85.7882 46.1501 85.7359 46.0978C85.6836 46.0455 85.6215 46.004 85.5532 45.9757C85.4848 45.9474 85.4116 45.9328 85.3376 45.9328C85.1882 45.9328 85.0449 45.9922 84.9393 46.0978C84.8337 46.2034 84.7743 46.3467 84.7743 46.4961C84.7743 46.6455 84.8337 46.7888 84.9393 46.8944C85.0449 47.0001 85.1882 47.0594 85.3376 47.0594ZM92.5843 47.0594C92.6583 47.0594 92.7315 47.0449 92.7999 47.0165C92.8682 46.9882 92.9303 46.9467 92.9826 46.8944C93.0349 46.8421 93.0764 46.78 93.1047 46.7117C93.133 46.6433 93.1476 46.5701 93.1476 46.4961C93.1476 46.4221 93.133 46.3489 93.1047 46.2806C93.0764 46.2122 93.0349 46.1501 92.9826 46.0978C92.9303 46.0455 92.8682 46.004 92.7999 45.9757C92.7315 45.9474 92.6583 45.9328 92.5843 45.9328C92.4349 45.9328 92.2916 45.9922 92.186 46.0978C92.0804 46.2034 92.021 46.3467 92.021 46.4961C92.021 46.6455 92.0804 46.7888 92.186 46.8944C92.2916 47.0001 92.4349 47.0594 92.5843 47.0594ZM96.2077 47.0594C96.3569 47.0594 96.5 47.0001 96.6056 46.8946C96.7111 46.7891 96.7704 46.6459 96.7704 46.4967C96.7704 46.3474 96.7111 46.2043 96.6056 46.0988C96.5 45.9932 96.3569 45.934 96.2077 45.934C96.0584 45.934 95.9153 45.9932 95.8097 46.0988C95.7042 46.2043 95.6449 46.3474 95.6449 46.4967C95.6449 46.6459 95.7042 46.7891 95.8097 46.8946C95.9153 47.0001 96.0584 47.0594 96.2077 47.0594ZM194.757 0.648926V57.1454H183.051C185.525 50.6555 186.08 42.627 184.333 35.5908C182.22 26.6485 176.365 18.15 168.068 12.9039C160.231 7.91497 150.276 5.94853 140.488 7.96959L138.235 8.51696V0.648926H194.757ZM153.794 9.51156C150.789 7.85124 146.833 7.61112 143.288 8.21539L144.543 8.35537L144.722 8.27229C146.364 8.15053 148.092 8.20629 149.621 8.53972C149.122 8.67969 148.261 8.96419 147.656 9.21796C147.996 9.33973 148.43 9.56391 148.731 9.75282C149.382 9.52067 150.746 9.15651 151.414 9.01881C152.003 9.19975 153.534 9.90303 154.483 10.5983C153.361 10.7156 151.827 10.9352 150.595 11.2208C150.885 11.4803 151.136 11.7796 151.349 12.1119C152.822 11.8524 154.311 11.6923 155.805 11.6328C156.551 12.2723 157.168 13.0478 157.624 13.9178C155.963 13.8018 153.752 13.8314 152.4 13.9782C152.536 14.224 152.731 14.8408 152.813 15.2129C154.492 15.14 157.234 15.2618 158.382 15.428C158.759 16.3372 158.977 17.3125 159.064 18.3378C157.142 17.9577 154.883 17.6402 153.118 17.5548C153.139 18.1238 153.116 18.6667 153.063 19.1992C155.124 19.4145 157.167 19.7846 159.172 20.3065C159.149 21.3068 159.002 22.554 158.732 23.5145C157.167 22.9569 154.672 22.2172 152.555 21.7893C152.345 22.662 152.055 23.5134 151.688 24.3327C153.757 25.0223 155.797 25.9225 157.756 26.8898C157.429 27.837 157.02 28.7539 156.533 29.63C154.575 28.533 152.56 27.4542 150.561 26.6018C149.937 27.7318 149.236 28.8174 148.463 29.8508C150.408 31.0366 152.25 32.3214 154.082 33.6949C153.534 34.4949 152.749 35.4577 152.271 36.0312C150.5 34.5793 148.718 33.1404 146.925 31.7148C145.86 32.9928 144.957 33.9441 143.623 34.9717C145.104 36.4875 147.035 38.6395 148.24 40.1393C147.647 40.7646 146.99 41.325 146.279 41.811C144.815 40.0136 143.394 38.1809 142.018 36.3146C140.58 37.4412 139.7 38.0523 138.236 38.817L138.234 40.9245L140.57 45.6005C140.038 45.9385 139.609 46.1513 138.932 46.4381L138.235 45.0736V47.5317C147.247 43.5305 156.416 34.7089 159.085 25.1247C160.058 21.8155 160.232 17.5503 158.638 14.4664C157.7 12.4373 155.802 10.5426 153.794 9.51156ZM152.453 8.11753C152.844 8.24612 153.22 8.42365 153.593 8.58411L153.807 8.54996C155.728 8.86632 157.57 9.50701 159.219 10.4094C158.324 10.414 157.396 10.4026 156.5 10.4732C156.878 10.8134 157.27 11.2015 157.599 11.5577C158.804 11.5349 159.975 11.5611 161.131 11.6373C162.276 12.4772 163.44 13.606 164.092 14.7634C162.756 14.4618 160.916 14.1944 159.271 14.0555C159.487 14.5426 159.7 15.0456 159.883 15.5656C161.708 15.8319 163.514 16.1654 165.274 16.6115C165.85 17.8132 166.296 19.0798 166.483 20.4135C164.543 19.7239 162.553 19.0672 160.518 18.6541C160.569 19.3051 160.573 19.9879 160.576 20.6559C162.679 21.2624 164.734 21.968 166.723 22.8692C166.739 24.1691 166.593 25.4659 166.287 26.7293C164.28 25.7301 162.239 24.7492 160.122 24.0277C159.851 25.2066 159.504 26.3664 159.081 27.4997C161.122 28.5467 163.144 29.6107 165.072 30.8704C164.677 31.9752 164.17 33.0365 163.558 34.0374C161.665 32.7436 159.771 31.4838 157.795 30.3868C157.097 31.8489 156.248 33.2338 155.261 34.5188C157.026 35.9083 158.824 37.3479 160.524 38.8841C159.886 39.8429 159.167 40.7455 158.375 41.5823C157.134 40.2759 155.07 38.4267 153.354 36.97C152.134 38.4415 150.689 40.0665 149.245 41.2728C150.35 42.4369 153.63 46.3914 153.63 46.3914C152.91 47.0953 152.136 47.7417 151.315 48.3249C151.315 48.3249 147.968 44.0267 147.136 42.9923C145.156 44.5638 143.566 45.6665 141.248 46.8956C142.172 48.4648 144.45 52.705 144.45 52.705C143.868 53.0646 143.247 53.4026 142.632 53.6256C141.561 51.839 140.265 49.2466 139.573 47.7673C138.908 48.1337 138.235 48.367 138.235 48.367V56.0996C145.223 53.8327 151.662 49.8202 157.116 44.013C162.083 38.6315 166.008 32.8175 167.178 25.8769C168.109 20.3384 166.276 15.123 161.877 11.5975C159.213 9.32038 155.904 8.52379 152.453 8.11753ZM150.128 11.8092C147.065 8.71384 142.367 8.45665 138.237 9.43076C138.239 9.42735 138.237 9.80516 138.237 9.80516C139.097 9.62195 140.222 9.44442 141.245 9.44783C140.575 9.85409 139.936 10.3434 139.349 10.8248C139.598 10.8783 139.864 10.9614 140.098 11.0649C141.035 10.3992 141.94 9.81768 142.686 9.40914C143.662 9.4137 144.927 9.59805 145.756 9.92807C144.396 10.4163 142.746 11.1742 141.679 11.8865C141.877 11.9935 142.086 12.1653 142.235 12.3224C143.753 11.5302 145.334 10.8634 146.962 10.3286C147.689 10.6177 148.471 11.1377 148.92 11.5713C146.953 12.0379 145.068 12.5545 143.168 13.3261C143.357 13.5412 143.548 13.8689 143.643 14.0726C145.019 13.5821 147.706 12.7981 149.82 12.3964C150.205 12.8083 150.663 13.4683 150.903 14.0828C148.576 14.323 145.91 14.7304 144.121 15.2425C144.231 15.544 144.297 15.8365 144.355 16.1198C146.558 15.6965 148.991 15.379 151.365 15.2857C151.58 15.9685 151.698 16.6991 151.703 17.4479C149.333 17.2977 146.619 17.3955 144.459 17.6163C144.462 17.8997 144.422 18.4584 144.387 18.8044C146.572 18.7395 149.016 18.7634 151.63 19.0604C151.541 19.766 151.366 20.6832 151.138 21.4718C148.697 20.9165 146.473 20.6468 144.019 20.484C143.923 20.9586 143.723 21.5401 143.49 22.0328C145.789 22.4562 148.086 23.0923 150.304 23.8855C149.997 24.6035 149.644 25.3057 149.257 25.9907C147.597 25.2078 144.652 24.1074 142.716 23.568C142.333 24.34 141.868 25.0684 141.329 25.7404C142.721 26.4186 145.385 27.9219 147.205 29.0952C146.762 29.7021 146.281 30.2806 145.765 30.8272C144.002 29.4491 142.242 28.1529 140.326 26.933C139.677 27.6702 138.979 28.3619 138.235 29.003V29.2226L142.64 33.9191C142.153 34.3618 141.651 34.7703 141.133 35.1481L138.235 31.444V37.9874C142.714 35.3598 147.247 31.048 149.794 26.4767C151.875 22.8203 153.444 17.8644 151.436 13.6584C151.079 13.0086 150.701 12.3759 150.128 11.8092ZM163.294 11.8547L164.598 12.0106C165.903 12.6877 167.096 13.6424 168.177 14.7759C168.571 15.2129 168.996 15.651 169.275 16.121C168.2 15.8171 167.155 15.4484 166.046 15.2106C166.421 15.7955 166.69 16.3713 166.969 17.045C168.207 17.3967 169.431 17.8291 170.637 18.2627C171.424 19.7297 171.966 21.3158 172.241 22.958C170.854 22.2661 169.467 21.589 168.032 21.028C168.141 21.8405 168.176 22.6781 168.143 23.4849C169.712 24.2064 171.473 25.1714 172.56 25.8701C172.597 27.0172 172.487 29.0588 172.151 30.3652C170.897 29.4502 169.089 28.277 167.625 27.5236C167.425 28.6491 166.894 30.4095 166.329 31.6488C167.866 32.6832 169.384 33.7473 170.837 34.9922C170.387 36.2144 169.825 37.3899 169.212 38.5325C167.766 37.2867 166.278 36.0904 164.751 34.9456C163.879 36.6616 162.915 38.215 161.603 39.8287C163.075 41.1863 164.481 42.5154 165.889 43.9721C165.185 45.0115 164.395 45.9905 163.529 46.899C162.186 45.456 160.81 43.9834 159.403 42.6076C157.948 44.2918 156.302 46.05 154.581 47.4998C155.374 48.3249 157.085 50.3289 158.333 52.1189C157.477 52.8484 156.679 53.5437 155.819 54.1662L152.198 49.4981C149.959 51.2336 147.59 52.6788 145.205 53.9772L147.11 57.1511H153.002C162.004 50.9991 170.143 41.8679 172.646 31.683C174.157 25.4411 172.724 19.0627 168.421 14.4197C166.129 11.9491 163.587 11.1173 161.791 10.5642C162.247 10.8624 162.781 11.3267 163.294 11.8547ZM138.238 11.3346V12.4248L138.847 11.9981C139.353 12.121 139.934 12.3725 140.316 12.6251C139.618 13.0359 138.894 13.4479 138.243 13.8894V14.5733C139.107 14.043 140.129 13.4228 140.936 13.0131C141.263 13.2237 141.559 13.5309 141.787 13.8382C140.619 14.3036 138.991 15.0979 138.236 15.4996C138.236 15.4996 138.234 16.2006 138.236 16.2006C139.53 15.5747 140.961 14.9386 142.321 14.5187C142.501 14.8282 142.671 15.2197 142.741 15.5748C141.29 15.8558 139.616 16.4669 138.243 16.9984V17.6413C139.689 17.1395 141.645 16.6251 142.916 16.4191C143.016 16.8334 143.026 17.3591 143.028 17.7381C141.422 17.8869 139.827 18.1289 138.249 18.463V19.1958C139.641 19.0092 141.95 18.8385 142.953 18.8783C142.859 19.3836 142.748 19.9048 142.554 20.3611C141.401 20.2564 139.543 20.1699 138.24 20.2041C138.236 20.2064 138.236 21.1839 138.234 21.1884C139.505 21.2579 140.894 21.5663 142.007 21.7802C141.858 22.1683 141.576 22.7133 141.331 23.1014C140.457 22.8112 139.186 22.4072 138.232 22.2547V24.1893C138.843 24.4602 139.724 24.9006 140.021 25.094C139.828 25.3899 139.426 25.8781 139.147 26.1239C138.744 25.8542 138.231 25.5515 138.231 25.5515V28.0175C139.251 27.0195 140.253 25.9725 141.045 24.8619C143.016 22.0192 144.576 18.3321 143.156 14.7759C142.304 12.8265 140.226 11.6009 138.238 11.3346ZM171.246 16.7765C171.657 17.4741 172.053 18.1887 172.382 18.9193L173.947 19.6431C175.064 21.4604 175.954 23.3768 176.437 25.457C175.57 24.9085 174.69 24.3429 173.807 23.8593C173.942 24.8027 173.975 25.6573 173.998 26.6496C174.994 27.3438 176.029 28.0789 176.992 28.937C177.075 30.6358 176.974 32.3386 176.692 34.0158C175.687 33.0383 174.607 32.1414 173.462 31.3336C173.194 32.8209 172.655 34.5074 172.031 36.0119C173.133 36.8915 174.342 38.0409 175.4 39.1994C174.953 40.5067 174.393 41.773 173.728 42.9843C172.663 41.8349 171.492 40.6332 170.326 39.617C169.612 41.011 168.164 43.2574 166.886 44.9894C168.048 46.1877 169.129 47.4361 170.193 48.6833C169.435 49.7462 168.574 50.7567 167.683 51.74C166.604 50.4905 165.59 49.2125 164.461 47.9994C162.754 49.9841 161.322 51.5329 159.279 53.2535C160.49 54.7113 162.311 57.1454 162.311 57.1454H163.344C165.256 55.443 167.094 53.5334 168.759 51.6045C172.884 46.5701 176.142 41.1829 177.282 34.9262C178.518 28.3612 176.791 21.9725 172.453 17.2271L171.246 16.7765ZM175.367 20.0596L175.349 20.1074C177.233 22.4254 178.728 24.9074 179.507 27.6704L179.491 27.7034L178.036 26.6041C178.22 27.7262 178.367 28.7663 178.407 29.9396C179.092 30.4619 179.843 31.1356 180.429 31.8411C180.527 33.7495 180.527 35.7786 180.196 37.6517C179.549 36.78 178.967 36.1598 177.946 35.1379C177.719 36.5274 177.204 38.7032 176.577 40.1655C177.463 41.1328 178.382 42.355 178.953 43.2506C178.62 44.3977 177.971 45.9374 177.281 47.229C176.458 46.1707 175.882 45.3126 174.807 44.0529C173.72 46.0659 172.49 47.998 171.125 49.8338C172.058 50.9365 172.911 52.0871 173.732 53.2546C172.953 54.3494 172.116 55.402 171.225 56.408C170.374 55.2415 169.471 54.074 168.587 52.9235C167.349 54.3596 166.102 55.8265 164.597 57.1465H171.539C176.004 51.963 179.244 46.2264 180.563 39.741C181.928 33.2079 180.85 26.2957 176.643 21.3694C176.25 20.9335 175.841 20.3827 175.367 20.0596ZM181.289 29.143C181.556 30.3947 181.674 31.4246 181.832 33.0633C182.35 33.6278 182.97 34.5769 182.97 34.5769C183.035 36.4887 182.917 38.413 182.521 40.3851L181.471 39.0867C181.154 40.9089 180.675 42.6992 180.04 44.4364L181.208 46.4677C180.864 47.6751 180.197 49.3479 179.555 50.6862C179.121 49.9772 178.708 49.2011 178.261 48.5786C177.214 50.619 175.959 52.6082 174.602 54.5201L176.227 57.1477C176.232 57.1454 176.598 57.1454 176.603 57.1477C180.528 51.3155 183.162 44.8904 183.433 37.58C183.564 34.52 182.606 31.8548 181.453 29.3057L181.289 29.143ZM184.405 39.6238C184.279 40.6013 184.202 41.5948 184.029 42.5246L183.719 42.1024C183.401 44.0551 182.895 45.9725 182.208 47.8276L182.69 49.1636C182.262 50.6249 181.747 52.0594 181.148 53.4595C180.997 53.002 180.712 52.4524 180.451 52.0324C179.581 53.7622 178.55 55.6068 177.519 57.1465L180.117 57.1443C181.535 54.3895 182.655 51.4918 183.46 48.5001C184.146 45.6973 184.765 42.6987 184.423 39.6227L184.405 39.6238ZM184.571 46.7852C184.025 49.6415 183.039 53.175 182.209 55.7002C182.109 55.5033 182.016 55.3033 181.929 55.1004C181.542 55.8845 180.951 57.1454 180.951 57.1454H182.287C183.438 54.4336 184.245 50.5223 184.571 46.7852ZM143.186 54.932C141.575 55.6652 139.921 56.3006 138.234 56.8347L138.236 57.142H144.424L143.186 54.932ZM156.735 55.3474C156.093 55.8071 155.275 56.5343 154.288 57.1477H157.92C157.92 57.1477 157.133 55.9744 156.735 55.3474ZM197.305 55.6717C197.305 54.9252 197.9 54.3312 198.653 54.3312C199.406 54.3312 200 54.9241 200 55.6717C200 56.416 199.407 57.01 198.653 57.01C198.476 57.0116 198.301 56.9782 198.137 56.9117C197.974 56.8451 197.825 56.7467 197.699 56.6223C197.574 56.4978 197.475 56.3497 197.407 56.1865C197.339 56.0233 197.305 55.8484 197.305 55.6717ZM199.792 55.6717C199.792 55.3693 199.672 55.0793 199.458 54.8654C199.244 54.6516 198.954 54.5314 198.651 54.5314C198.349 54.5314 198.059 54.6516 197.845 54.8654C197.631 55.0793 197.511 55.3693 197.511 55.6717C197.511 56.3033 198.038 56.8051 198.651 56.8051C199.267 56.8051 199.792 56.3033 199.792 55.6717ZM199.292 56.3966H199.043L198.605 55.7184H198.356V56.3966H198.151V54.9297H198.789C199.053 54.9297 199.312 55.0003 199.312 55.3189C199.312 55.6057 199.109 55.7127 198.847 55.7195L199.292 56.3966ZM198.605 55.5135C198.787 55.5135 199.104 55.5465 199.104 55.3132C199.104 55.1619 198.906 55.1334 198.749 55.1334H198.356V55.5135H198.605Z" fill="black"/>
<path fill-rule="evenodd" clip-rule="evenodd" d="M86.0752 60.2546L85.8749 60.893C85.4835 62.147 85.1455 63.2315 84.3796 64.3889C83.3088 65.9957 81.8567 66.8799 80.2886 66.8799C79.5898 66.8799 78.643 66.6819 78.0843 66.1243C77.9325 65.9753 77.8127 65.7969 77.7321 65.6001C77.6515 65.4033 77.6118 65.1921 77.6154 64.9795C77.6154 64.6369 77.7452 64.3194 77.9796 64.0862C78.2231 63.8415 78.5554 63.7083 78.9162 63.7083C79.2849 63.7083 79.5876 63.8301 79.8152 64.0748C80.1099 64.39 80.2556 64.8998 80.2169 65.4711V65.5291C80.2169 65.7954 80.2157 66.0253 80.3375 66.147C80.4081 66.2176 80.5241 66.254 80.6891 66.254C81.2342 66.254 81.6871 65.9365 82.1162 65.2583C82.7739 64.2318 83.4453 62.0105 83.847 60.6858L83.9381 60.3831L87.6274 48.3159L88.3967 45.76L88.6255 45.0158L88.7677 44.531C89.3139 42.7637 89.9717 40.9679 91.071 39.8129C92.061 38.7944 94.0286 37.7031 95.3828 37.7031C96.1134 37.7031 96.7222 37.9125 97.1 38.2903C97.3936 38.5839 97.5416 38.9685 97.5416 39.4328C97.5416 40.2396 97.0306 40.762 96.2409 40.762C95.2212 40.762 95.0869 40.0598 94.98 39.4954C94.8776 38.9503 94.7888 38.618 94.2972 38.618C93.8374 38.618 93.2889 39.022 92.9498 39.4226C92.1532 40.2988 91.6707 41.9079 91.3179 43.0812L91.2474 43.3145L90.7034 45.059L90.4747 45.8033L89.7054 48.3592L86.0752 60.2546ZM20.1494 5.35353C22.5585 4.27585 25.7722 4.45452 27.7819 6.26733C29.1577 7.48953 29.8177 9.11457 29.5537 10.9683C29.3318 12.7948 27.8968 14.5678 26.1489 15.2153C23.6976 16.2258 20.3884 15.9937 18.431 14.058C17.0939 12.6321 16.4293 10.5575 17.1269 8.62979C17.5332 7.24941 18.8373 5.94073 20.1494 5.35353ZM113.696 10.4301C115.194 9.40476 116.945 8.94729 118.724 8.57175C118.768 7.84913 118.542 7.07758 117.857 6.69066C116.966 6.1706 115.672 6.14556 114.767 6.6201C114.32 6.87046 113.836 7.27104 113.638 7.76378C113.461 7.72509 113.24 7.59195 113.063 7.48497C113.469 6.21384 114.597 4.96206 115.941 4.68667C117.976 4.25423 120.469 4.3191 121.715 6.23547C122.104 6.87046 122.181 7.61812 122.232 8.39308L122.308 13.4822C122.363 13.6449 122.408 13.8611 122.613 13.9009C123.021 13.9226 123.193 13.4446 123.366 13.1567L123.955 13.4219C123.598 14.3652 122.668 15.2347 121.677 15.3826C120.782 15.5157 119.921 15.2551 119.315 14.5678L118.925 13.9328C117.578 15.1061 115.696 15.9186 113.905 15.1505C113.112 14.8193 112.42 14.0261 112.316 13.1692C112.192 12.0267 112.752 11.0662 113.696 10.4301ZM79.9893 5.1521C81.8692 4.23033 84.5253 4.42949 86.1481 5.77003C87.3304 6.70887 87.8493 7.98228 88.0018 9.39566L80.5173 9.44573C80.4285 11.1482 81.117 12.8824 82.7455 13.6244C84.0462 14.1797 85.5916 13.7803 86.56 12.8016C86.8286 12.5263 87.0573 12.2372 87.2439 11.922L87.8459 12.2008C86.9071 14.4301 84.5537 15.6705 82.1446 15.633C80.3614 15.5726 78.717 14.7351 77.7053 13.1556C76.6652 11.5749 76.5799 9.04516 77.5665 7.41329C78.0592 6.4551 79.0152 5.57202 79.9893 5.1521ZM6.12939 1.84966C7.92855 0.956343 10.4594 0.870995 12.386 1.5151C12.9732 1.65734 13.6868 2.11141 14.266 1.6289C14.4276 1.49007 14.4799 1.31253 14.5311 1.12249L15.157 1.11453L15.1923 6.28554L14.431 6.29464C14.2626 4.70488 13.3294 3.05593 11.7442 2.44938C10.6506 2.01353 9.19513 2.1262 8.23694 2.79192C5.90521 4.64342 5.78231 7.99365 6.46965 10.7476C6.85315 12.0494 7.891 13.4651 9.2452 13.9669C11.4734 14.7283 13.6378 13.695 15.0853 11.9356L15.7568 12.2816C14.332 14.8853 11.5838 16.062 8.66824 15.8389C6.17719 15.7741 3.69296 14.1172 2.75299 11.7604C1.65824 9.03719 1.94046 5.42864 4.13336 3.30515C4.72398 2.6565 5.41246 2.2252 6.12939 1.84966ZM124.717 14.5143C125.262 14.5075 125.819 14.3652 126.097 13.8577L126.268 13.365L126.299 10.2753L126.287 2.69405C126.225 2.16489 126.218 1.57883 125.671 1.31368C125.353 1.2204 125.021 1.18305 124.689 1.20329L124.685 0.699164L129.797 0.296313L129.837 5.84856L129.869 12.9655C129.863 13.5516 130.032 14.1342 130.621 14.3857L131.385 14.5257L131.39 15.0162L124.722 15.0298C124.694 14.8593 124.692 14.6854 124.717 14.5143ZM115.959 12.8915C115.992 13.2864 116.297 13.7177 116.705 13.8213C117.552 14.0295 118.281 13.5163 118.748 12.8301L118.734 9.55042C117.976 9.81785 117.19 10.1274 116.545 10.693C116.008 11.2859 115.868 12.0631 115.959 12.8915ZM103.17 5.49464C104.844 4.37144 106.433 2.80102 107.773 1.17939C107.882 1.15094 108.018 1.16232 108.14 1.16119L108.131 4.76746L108.184 4.82094L111.204 4.78339C111.211 5.15096 111.216 5.5595 111.22 5.89976L108.158 5.97715L108.12 6.1137L108.146 11.7888C108.198 12.4546 108.313 13.1203 108.931 13.5072C109.355 13.7883 109.996 13.7803 110.455 13.5698C110.66 13.4992 110.833 13.3206 111.009 13.1556L111.542 13.3797C110.862 14.6406 109.511 15.4054 108.055 15.4088C106.913 15.3963 105.819 14.9741 105.166 13.9613C104.888 13.4753 104.812 12.9041 104.766 12.3339L104.705 6.30488C104.717 6.21043 104.78 5.89634 104.565 5.92593L103.176 5.92935L103.17 5.49464ZM88.9987 5.13731L93.7976 4.72422L93.8158 6.29009L93.8716 6.34358C95.3009 5.25111 97.0978 4.1814 98.9857 4.98823C100.066 5.39677 100.925 6.51655 101.047 7.64429C101.207 9.5618 101.053 11.5362 101.184 13.4537C101.231 13.9032 101.538 14.388 101.987 14.52L102.586 14.6076L102.593 15.1106L96.2386 15.147C96.2095 14.9758 96.2072 14.8012 96.2318 14.6293C96.7359 14.6372 97.2093 14.4267 97.4767 13.9749C97.6895 13.5231 97.6952 12.9928 97.6622 12.4489L97.5973 8.28498C97.4949 7.68754 97.2275 7.02409 96.5993 6.79991C95.5865 6.36292 94.5453 6.87843 93.8329 7.62381L93.8613 13.3126C93.8943 13.8156 94.1197 14.3573 94.6386 14.5416C94.8571 14.6213 95.1154 14.6042 95.3066 14.6839L95.285 15.1459L89.0522 15.1812C89.0238 15.0184 89.034 14.8421 89.0317 14.6645C89.5631 14.685 90.0627 14.4062 90.2744 13.9283L90.4041 13.3957L90.4155 7.57032C90.3256 6.91825 90.4644 6.10005 89.8078 5.7541C89.5347 5.6221 89.1933 5.63916 88.8667 5.6164C88.9077 5.4514 88.7404 5.12707 88.9987 5.13731ZM80.4911 8.30433L80.5048 8.35781C81.7714 8.41016 83.1734 8.36578 84.3842 8.33733C84.2647 7.44059 84.185 6.54272 83.5512 5.87017C83.3428 5.68005 83.0889 5.54687 82.814 5.48348C82.5391 5.42009 82.2525 5.42864 81.9819 5.50829C80.8576 5.97259 80.5867 7.21414 80.4911 8.30433ZM62.4199 5.24428L67.1926 4.84598C67.2131 5.38994 67.1653 5.976 67.2666 6.47899C68.6959 5.35921 70.5064 4.31568 72.3659 5.08269C73.3241 5.45253 74.1787 6.40844 74.3813 7.39963C74.6919 9.41045 74.4461 11.5908 74.6077 13.6574C74.6794 14.0102 74.8615 14.3482 75.2029 14.5485C75.4362 14.6543 75.7082 14.7055 75.9949 14.7021L76.0006 15.2051L69.6586 15.2415C69.6163 15.0814 69.6144 14.9132 69.6529 14.7522C70.1559 14.718 70.6714 14.5485 70.9093 14.0421C71.1471 13.4947 71.0857 12.8426 71.0777 12.2031C71.0458 10.7203 71.204 9.16692 70.874 7.78199C70.6623 7.19934 70.0319 6.83973 69.4458 6.76463C68.5878 6.66676 67.8993 7.1231 67.2802 7.68868L67.229 7.92083L67.2973 13.5129C67.3303 13.9897 67.5955 14.4893 68.0598 14.6475C68.2782 14.6987 68.5229 14.7226 68.7278 14.7886L68.7323 15.2244L62.4734 15.2734L62.454 14.7977C62.9445 14.7772 63.485 14.5815 63.6967 14.0614L63.839 13.4059L63.8037 7.11855C63.7559 6.62921 63.7491 6.05794 63.2165 5.84627C62.9297 5.75409 62.602 5.74499 62.289 5.73475C62.3289 5.57202 62.1616 5.24769 62.4199 5.24428ZM56.5365 0.416942C57.0486 0.0436829 57.7815 -0.128157 58.4096 0.108544C58.9991 0.320209 59.4805 0.885789 59.6113 1.48323C59.7286 2.16147 59.5044 2.76347 59.048 3.24598C58.5496 3.72848 57.7769 3.88666 57.1066 3.64996C56.4375 3.41326 55.9117 2.75323 55.8628 2.0454C55.8127 1.3922 56.0517 0.844825 56.5365 0.416942ZM54.6975 14.7704C55.0514 14.7396 55.3906 14.6941 55.6614 14.4859C56.0381 14.1695 56.128 13.7325 56.1496 13.2694L56.1598 7.45766C56.0984 6.86022 56.1576 6.1376 55.5419 5.84513C55.2551 5.7541 54.9547 5.66192 54.6281 5.66647L54.6088 5.1908L59.5317 4.94044L59.5988 12.656C59.5681 13.3911 59.5636 14.248 60.2896 14.6349C60.5229 14.7544 60.8222 14.7374 61.0407 14.8159L61.0327 15.2517L54.7043 15.2882L54.6975 14.7704ZM45.102 5.80986C46.776 4.67301 48.376 3.1299 49.7302 1.50713L50.1251 1.47527L50.0602 5.08269L50.1296 5.14982L53.1499 5.11227L53.1908 6.2275C52.1712 6.28098 51.1231 6.25253 50.1023 6.30602L50.0511 6.53817L50.0807 12.3078C50.1558 12.9325 50.3288 13.6119 50.9717 13.9169C51.4645 14.1559 52.1575 14.0386 52.6025 13.761L52.912 13.4856L53.4321 13.7098C53.2079 14.2446 52.6161 14.8091 52.0756 15.1288C50.8329 15.9197 48.8733 15.9163 47.6773 14.9923C47.0047 14.4699 46.7362 13.7382 46.6724 12.9359C46.578 10.7055 46.6588 8.47275 46.6451 6.26733C46.1547 6.19222 45.6107 6.26733 45.1077 6.23205L45.102 5.80986ZM30.9011 5.34329L35.7011 4.93133C35.7751 5.47529 35.6465 6.03404 35.7478 6.54955C37.0439 5.67672 38.3242 4.68097 40.0562 4.95978C41.0929 5.13731 42.2024 5.80417 42.6371 6.83291C42.9171 7.44173 43.0206 8.13477 43.0297 8.85625L43.1174 13.7132C43.1765 14.1479 43.4815 14.6076 43.9185 14.7237L44.4636 14.8261C44.4522 14.9627 44.5922 15.3155 44.3475 15.3177L38.1421 15.3667C38.0988 15.2039 38.1239 15.0128 38.108 14.8364C38.6109 14.8318 39.1674 14.6201 39.3916 14.1137L39.5486 13.5948C39.5816 11.8651 39.642 10.0147 39.4838 8.28726C39.395 7.73078 38.966 7.15041 38.4198 6.96605C37.3944 6.57003 36.4488 7.14017 35.7352 7.82865L35.7626 13.4355C35.7944 13.8566 35.8809 14.264 36.2382 14.5587C36.5 14.7863 36.8402 14.8102 37.1816 14.833L37.1873 15.3086L30.9409 15.3712C30.8977 15.2085 30.9238 15.0321 30.9204 14.8682C31.3017 14.8637 31.6943 14.7499 31.9765 14.4472C32.2314 14.1308 32.3224 13.7485 32.3167 13.3274L32.2815 7.08099C32.2485 6.61896 32.146 6.08981 31.6419 5.93163C31.3813 5.81328 31.0558 5.85766 30.7691 5.8201C30.81 5.65737 30.6428 5.33418 30.9011 5.34329ZM20.6273 11.0355C20.7514 12.3544 20.905 13.7268 22.0714 14.5155C22.5926 14.8637 23.3835 14.9354 23.9651 14.6827C24.616 14.4574 25.1247 13.7974 25.3352 13.1829C25.9372 11.2028 25.9053 8.56151 25.0257 6.70887C24.5807 5.91114 23.7318 5.5265 22.8214 5.67443C22.4708 5.73436 22.1397 5.87744 21.8557 6.09167C21.5718 6.3059 21.3433 6.58505 21.1895 6.90574C20.6877 8.16435 20.5556 9.55384 20.6273 11.0355ZM46.9968 34.0991C47.7615 33.6496 48.104 32.8325 48.4466 32.1076L52.9132 20.7482L55.5442 20.7243L59.551 31.3121C60.0495 32.449 60.3692 34.3085 62.0455 34.2709C62.5109 34.2447 62.9513 33.9625 63.1573 33.5392L63.3098 32.2806L63.2336 26.2014C63.1607 25.8532 62.9946 25.4811 62.6202 25.3457L61.7564 25.1898L61.753 24.7243C63.3826 24.664 64.9895 24.5332 66.643 24.5184L66.7659 33.3924C66.8854 33.7406 67.1221 34.0888 67.4953 34.2242C67.7764 34.3619 68.3329 34.1708 68.1292 34.7557L54.619 34.8262L54.6144 34.3369C55.0799 34.239 55.592 34.2811 55.9379 33.859C56.2611 33.5301 56.1166 33.0191 56.0438 32.5992L55.1379 30.1616L50.619 30.1309C50.1865 31.2769 49.4742 32.4706 49.8121 33.7497C50.0966 34.2368 50.586 34.3232 51.0753 34.321L51.0787 34.7853L46.0704 34.8058C45.7609 33.9944 46.7441 34.4746 46.9968 34.0991ZM111.723 25.0088C113.39 23.8993 116.068 23.7821 117.824 24.7926C119.3 25.6882 120.266 27.1938 120.375 28.87L112.852 28.936C112.796 30.684 113.488 32.4012 115.149 33.1557C116.153 33.5437 117.411 33.4151 118.292 32.8245C118.823 32.5173 119.285 31.9312 119.63 31.4157L120.192 31.6899C119.439 33.6302 117.376 34.8365 115.398 35.0629C113.444 35.2655 111.715 34.6055 110.443 33.1261C109.147 31.5534 108.892 28.9929 109.832 27.1915C110.22 26.3733 110.912 25.5278 111.723 25.0088ZM52.9427 24.078L51.0742 28.9394L54.7078 28.9076L52.9427 24.078ZM122.234 31.0436C123.025 30.7807 122.754 31.8083 123.176 32.1076C124.048 33.3821 125.385 34.5326 127.014 34.1708C127.385 34.0046 127.826 33.7668 128.008 33.3708C128.103 33.0998 128.119 32.8075 128.055 32.5276C127.991 32.2477 127.849 31.9916 127.646 31.789C125.864 30.4302 122.556 30.6453 122.298 27.7115C122.219 26.594 122.676 25.6347 123.532 24.9519C125.106 23.7502 127.648 24.0541 129.4 24.6447C129.959 24.8029 130.093 24.0324 130.631 24.1918L130.75 27.4054L130.286 27.4327C129.857 26.3414 128.775 25.2091 127.63 24.87C127.07 24.7118 126.326 24.7642 125.814 25.002C125.467 25.2148 125.167 25.5676 125.172 25.9864C125.151 26.4757 125.412 26.8922 125.834 27.1448C127.868 27.9892 131.179 28.4251 131.275 31.3838C131.331 32.4774 130.85 33.3912 130.017 34.074C128.378 35.5784 125.577 35.0675 123.686 34.4541C123.359 34.412 123.056 34.5543 122.921 34.8581V34.9275L122.478 34.9537C122.349 33.6537 122.268 32.3495 122.234 31.0436ZM112.866 27.8879L116.802 27.8538C116.655 26.9002 116.576 25.9226 115.802 25.2535C115.45 24.9997 114.96 24.9121 114.517 24.9622C113.239 25.3218 112.948 26.7226 112.866 27.8879ZM99.5331 24.3238L99.5479 25.9545C100.127 25.6461 100.706 25.1522 101.307 24.845C102.259 24.3238 103.679 24.1258 104.707 24.5821C105.687 24.9918 106.512 25.9408 106.706 26.94C106.935 28.9645 106.79 31.1323 106.902 33.1819C106.974 33.5528 107.282 33.9238 107.633 34.1059C107.843 34.1753 108.053 34.2197 108.284 34.1947L108.289 34.659L101.955 34.7147C101.95 34.2368 101.941 34.2368 101.941 34.2618C102.116 34.2174 102.55 34.2846 102.739 34.057C103.181 33.7952 103.364 33.3275 103.406 32.8621C103.366 30.9753 103.579 28.9007 103.145 27.1334C102.837 26.4609 102.112 26.1639 101.389 26.1935C100.69 26.2686 100.135 26.6931 99.5808 27.1414C99.5274 29.0521 99.475 31.055 99.5615 32.9417C99.6343 33.3833 99.7789 33.8476 100.247 34.0763C100.458 34.214 100.738 34.1651 100.993 34.2345L100.998 34.6988L94.7546 34.7079L94.7501 34.2413C95.1461 34.2618 95.4943 34.1195 95.772 33.884L96.1157 33.2752C96.2591 30.9685 96.1669 28.5229 96.0997 26.1707C96.0736 25.7519 95.7675 25.3354 95.3464 25.2228L94.6261 25.1579L94.6226 24.7619L99.5331 24.3238ZM88.6186 20.1326C89.034 19.6865 89.5677 19.5647 90.1504 19.5374C90.733 19.5784 91.2952 19.8526 91.6252 20.4102C92.0019 20.9189 91.962 21.7121 91.6878 22.2492C91.3213 22.9047 90.6715 23.3064 89.9023 23.2199C89.1796 23.1801 88.4764 22.6498 88.2374 21.9533C88.0701 21.3013 88.2033 20.6253 88.6186 20.1326ZM87.7845 34.0456C88.4104 33.6917 88.3808 33.0168 88.4468 32.4092L88.3444 25.9818C88.3008 25.8213 88.2207 25.6731 88.1104 25.5487C88 25.4244 87.8624 25.3272 87.7082 25.2649C87.4499 25.0111 86.5919 25.4379 86.9116 24.6663L91.8016 24.4603L91.8528 32.9622C91.9029 33.4049 92.0474 33.8692 92.5151 34.0991C92.7279 34.4234 93.6087 33.9261 93.2889 34.6965L86.9776 34.7523C86.6419 33.9386 87.5079 34.3528 87.7845 34.0456ZM79.0049 34.2641C79.4704 34.2823 79.8652 34.1617 80.1896 33.8794C80.6277 33.4572 80.5765 32.8291 80.6174 32.2692L80.5287 22.0899C80.4786 21.695 80.3819 21.2535 79.9608 21.0703C79.6683 20.9372 79.3394 20.9072 79.0277 20.9849L79.0004 20.5195L84.0746 20.0791L84.1896 33.1921C84.2397 33.5881 84.5685 33.9807 84.9441 34.1412C85.2252 34.3483 85.9671 34.0171 85.694 34.717L79.0083 34.7523L79.0049 34.2641ZM70.2914 34.1298C70.8023 33.892 70.9138 33.3537 70.9787 32.8655L70.8945 25.8771C70.6794 25.2501 70.0023 25.1636 69.4674 25.0976C69.5118 24.9565 69.4879 24.7937 69.4868 24.6549L74.3995 24.3556L74.4245 27.1972C75.3918 26 76.4911 23.8014 78.453 24.4137L79.154 24.6868C78.9776 25.8293 78.6851 27.0435 78.4393 28.21C77.5494 27.6353 76.4467 26.7829 75.3577 27.5147C74.9639 27.798 74.618 28.1736 74.412 28.5707L74.4757 33.2285C74.5724 33.6018 74.7853 33.9727 75.1597 34.1548L76.0462 34.2857L76.0496 34.775L69.4811 34.7637C69.126 33.9773 70.0376 34.4097 70.2914 34.1298ZM64.0859 19.7172C64.689 19.4794 65.4822 19.5419 65.975 19.9106C66.6316 20.4171 66.8717 21.2307 66.668 21.9772C66.4848 22.421 66.1172 22.8899 65.6757 23.1038C65.1659 23.3178 64.4432 23.3701 63.9516 23.0492C63.3667 22.7511 63.0583 22.1491 62.9832 21.5198C63.0003 20.7755 63.3667 20.004 64.0859 19.7172Z" fill="black"/>
</svg>
