<svg width="200" height="32" viewBox="0 0 200 32" fill="none" xmlns="http://www.w3.org/2000/svg">
<g clip-path="url(#clip0_2019_13)">
<path d="M8.70001 8.36811C8.80243 8.36811 11.9752 1.35555 17.1951 1.25236C18.3206 1.25236 18.5254 2.07791 18.4242 2.79911C18.3217 4.96503 14.0224 7.85215 8.70001 8.36811ZM17.9121 11.05C16.7866 12.0808 14.3297 14.1435 10.6448 14.0403C9.10969 14.0403 8.18792 12.6999 8.29147 10.6372C8.29147 10.1213 8.39389 9.60643 8.49631 9.19251C14.6369 9.08932 20.1642 6.61497 20.369 3.31508C20.4714 1.35555 18.629 0.736395 16.7877 0.634348C10.8497 0.221575 5.22003 6.40859 4.91277 11.5648C4.81035 12.9052 5.22003 16.4126 9.82549 16.2062C13.3055 16.103 16.683 12.9063 17.9109 11.668L17.9121 11.05Z" fill="#B01842"/>
<path d="M20.6753 8.47126H27.1243V11.152H20.6753V8.47126ZM34.1867 7.54366C34.6988 6.9245 35.4146 6.51173 36.2339 6.51173C37.0533 6.51173 37.7691 6.82131 38.1788 7.44047C38.6909 8.05963 38.8946 8.98722 38.8946 10.0192C38.8946 11.1531 38.6897 11.9787 38.1788 12.5978C37.7691 13.217 37.0533 13.5266 36.2339 13.5266C35.4146 13.5266 34.6988 13.217 34.1867 12.5978C33.6746 11.9787 33.4697 11.1543 33.4697 10.0192C33.4697 8.98722 33.6746 8.16168 34.1867 7.54366ZM33.3673 15.3806L33.4697 13.8339C33.9818 14.453 34.4928 14.8647 35.2097 15.1742C35.8243 15.4838 36.5401 15.5859 37.3594 15.5859C38.997 15.5859 40.3273 15.0699 41.2491 14.0391C42.2721 13.1104 42.7842 11.77 42.7842 10.0169C42.7842 8.36692 42.2721 7.02655 41.3515 5.99462C40.3284 4.96383 39.0994 4.44786 37.4618 4.44786C36.6436 4.44786 35.8243 4.65425 35.2097 4.86064C34.4928 5.17022 33.9818 5.58184 33.4697 6.201V0.0151367H29.6825V14.5562C29.6825 14.7626 29.6825 15.0722 29.5801 15.3818H33.3673V15.3806ZM57.7283 4.6554V14.453C57.7283 14.7626 57.8308 15.0722 57.8308 15.3818H54.2484L54.1459 13.835C53.6338 14.4542 53.0193 14.969 52.406 15.1754C51.689 15.485 50.8708 15.6902 49.8466 15.6902C48.4139 15.6902 47.3897 15.3806 46.6739 14.6594C45.9569 14.0403 45.6508 13.0095 45.6508 11.5659V4.6554H49.4381V11.1531C49.4381 11.9787 49.5405 12.4935 49.8477 12.9063C50.2574 13.2159 50.7695 13.4222 51.4853 13.4222C52.3047 13.4222 52.8156 13.2159 53.2253 12.8031C53.7363 12.4935 53.9411 11.9775 53.9411 11.2552V4.6554H57.7283ZM60.1841 12.1839H63.7665C63.7665 12.6999 63.9714 13.0095 64.2775 13.2159C64.5848 13.5254 65.1993 13.6275 65.8138 13.6275C66.4283 13.6275 66.9393 13.5243 67.2465 13.3179C67.6551 13.1115 67.8599 12.8019 67.8599 12.3892C67.8599 11.77 67.0417 11.3584 65.403 10.9456C64.9944 10.9456 64.6872 10.8424 64.4823 10.8424C63.0496 10.4296 62.0254 10.1201 61.412 9.60524C60.7975 9.08927 60.4903 8.47011 60.4903 7.7489C60.4903 6.71697 61.0024 5.99576 62.0254 5.3766C63.0485 4.75744 64.3788 4.44786 66.0175 4.44786C67.4502 4.44786 68.6781 4.65425 69.4975 5.17022C70.4192 5.78938 70.8278 6.51058 70.8278 7.43932H67.5526C67.3478 6.61378 66.7344 6.20215 65.7102 6.20215C65.1981 6.20215 64.6872 6.30534 64.3799 6.51173C64.0727 6.71812 63.869 7.0277 63.869 7.33728C63.869 7.85324 64.6872 8.26602 66.4283 8.5756C66.7356 8.67879 67.0428 8.67879 67.2477 8.78198C68.7828 9.09156 69.8059 9.40114 70.5228 9.91596C71.1373 10.4319 71.4446 11.0499 71.4446 11.8755C71.4446 13.0095 70.9325 13.835 69.807 14.5562C68.7839 15.2786 67.3512 15.6902 65.7125 15.6902C63.9725 15.6902 62.6422 15.3806 61.618 14.7615C60.6962 14.1434 60.1841 13.319 60.1841 12.1839ZM74.1052 0.0151367H77.8924V2.79906H74.1052V0.0151367ZM74.1052 4.6554H77.8924V15.3806H74.1052V4.6554ZM81.3713 15.3806V6.71812C81.3713 6.40854 81.2689 6.1001 81.2689 5.79052C81.2689 5.48094 81.2689 5.06932 81.1664 4.6554H84.8513L84.9537 6.30534C85.3634 5.58299 85.9767 5.17136 86.6937 4.86178C87.3082 4.5522 88.1264 4.44901 89.1495 4.44901C90.5833 4.44901 91.7088 4.75859 92.4246 5.37775C93.0391 6.1001 93.4477 7.13089 93.4477 8.47126V15.3806H89.6627V8.88403C89.6627 8.16168 89.4579 7.54366 89.1506 7.23408C88.8433 6.82131 88.3324 6.71812 87.5142 6.71812C86.7972 6.71812 86.1839 6.82131 85.7742 7.23408C85.3645 7.64686 85.0584 8.16168 85.0584 8.78084V15.3806H81.3713ZM100.717 7.0277C101.126 6.61607 101.639 6.40854 102.252 6.40854C102.969 6.40854 103.48 6.61492 103.89 6.9245C104.298 7.33728 104.504 7.95529 104.504 8.67764H100C100 7.95529 100.307 7.44047 100.717 7.0277ZM104.607 11.9775C104.402 12.4935 104.197 12.9063 103.787 13.2159C103.479 13.4222 102.968 13.5254 102.354 13.5254C101.535 13.5254 100.921 13.319 100.511 12.9063C100.102 12.3903 99.8967 11.6691 99.8967 10.6372H108.392V10.018C108.392 8.16168 107.881 6.82131 106.857 5.89257C105.834 4.86178 104.401 4.44901 102.557 4.44901C100.511 4.44901 98.976 4.96498 97.8494 5.89257C96.8264 6.92336 96.2119 8.36806 96.2119 10.1212C96.2119 11.8743 96.7228 13.2159 97.8494 14.2466C98.8725 15.1754 100.409 15.6902 102.352 15.6902C103.99 15.6902 105.32 15.2786 106.345 14.6594C107.266 14.0403 107.881 13.1127 107.982 11.9787H104.607V11.9775ZM110.133 12.1839H113.715C113.715 12.6999 113.92 13.0095 114.226 13.2159C114.636 13.5254 115.148 13.6275 115.864 13.6275C116.477 13.6275 116.887 13.5243 117.297 13.3179C117.604 13.1115 117.809 12.8019 117.809 12.3892C117.809 11.77 116.989 11.3584 115.352 10.9456C114.943 10.9456 114.636 10.8424 114.43 10.8424C112.997 10.4296 111.974 10.1201 111.36 9.60524C110.746 9.08927 110.438 8.47011 110.438 7.7489C110.438 6.71697 110.95 5.99576 111.974 5.3766C112.998 4.75744 114.328 4.44786 115.966 4.44786C117.501 4.44786 118.627 4.65425 119.548 5.17022C120.367 5.78938 120.879 6.51058 120.879 7.43932H117.5C117.398 7.02655 117.295 6.71697 116.989 6.51058C116.683 6.3042 116.272 6.201 115.659 6.201C115.147 6.201 114.737 6.3042 114.328 6.51058C114.02 6.71697 113.817 7.02655 113.817 7.33613C113.817 7.8521 114.738 8.26487 116.375 8.57445C116.784 8.67764 117.092 8.67764 117.297 8.78084C118.73 9.09042 119.856 9.4 120.47 9.91482C121.084 10.4308 121.391 11.0488 121.391 11.8743C121.391 13.0083 120.88 13.8339 119.856 14.5551C118.73 15.2774 117.399 15.6891 115.659 15.6891C113.919 15.6891 112.589 15.3795 111.667 14.7603C110.646 14.1434 110.235 13.319 110.133 12.1839ZM123.03 12.1839H126.611C126.611 12.6999 126.817 13.0095 127.123 13.2159C127.532 13.5254 128.045 13.6275 128.761 13.6275C129.374 13.6275 129.886 13.5243 130.193 13.3179C130.501 13.1115 130.704 12.8019 130.704 12.3892C130.704 11.77 129.886 11.3584 128.249 10.9456C127.84 10.9456 127.532 10.8424 127.327 10.8424C125.894 10.4296 124.871 10.1201 124.257 9.60524C123.643 9.08927 123.335 8.47011 123.335 7.7489C123.335 6.71697 123.847 5.99576 124.871 5.3766C125.895 4.75744 127.224 4.44786 128.863 4.44786C130.398 4.44786 131.524 4.65425 132.444 5.17022C133.264 5.78938 133.775 6.51058 133.775 7.43932H130.397C130.295 7.02655 130.192 6.71697 129.886 6.51058C129.578 6.3042 129.169 6.201 128.555 6.201C128.044 6.201 127.633 6.3042 127.224 6.51058C126.917 6.71697 126.713 7.02655 126.713 7.33613C126.713 7.8521 127.634 8.26487 129.272 8.57445C129.68 8.67764 129.989 8.67764 130.193 8.78084C131.626 9.09042 132.752 9.4 133.366 9.91482C133.981 10.4296 134.288 11.0488 134.288 11.8743C134.288 13.0083 133.776 13.8339 132.752 14.5551C131.626 15.2774 130.296 15.6891 128.657 15.6891C126.816 15.6891 125.484 15.3795 124.563 14.7603C123.644 14.1434 123.132 13.319 123.03 12.1839Z" fill="#2B2C2D"/>
<path d="M137.257 12.1839H140.839C140.839 12.6999 141.044 13.0095 141.35 13.2159C141.657 13.5254 142.17 13.6275 142.886 13.6275C143.5 13.6275 144.012 13.5243 144.319 13.3179C144.728 13.1115 144.83 12.8019 144.83 12.3892C144.83 11.77 144.114 11.3584 142.477 10.9456C142.068 10.9456 141.761 10.8424 141.555 10.8424C140.122 10.4296 138.997 10.1201 138.485 9.60524C137.871 9.08927 137.563 8.47011 137.563 7.7489C137.563 6.71697 138.075 5.99576 138.997 5.3766C140.02 4.75744 141.453 4.44786 143.091 4.44786C144.524 4.44786 145.752 4.65425 146.571 5.17022C147.493 5.78938 147.902 6.51058 147.902 7.43932H144.626C144.422 6.61263 143.806 6.20215 142.785 6.20215C142.171 6.20215 141.762 6.30534 141.454 6.51173C141.147 6.71812 140.943 7.0277 140.943 7.33728C140.943 7.85324 141.762 8.26602 143.501 8.5756C143.808 8.67879 144.116 8.67879 144.32 8.78198C145.856 9.09156 146.879 9.40114 147.493 9.91596C148.21 10.4319 148.516 11.0499 148.516 11.8755C148.516 13.0095 148.005 13.835 146.879 14.5562C145.856 15.2786 144.423 15.6902 142.785 15.6902C141.045 15.6902 139.715 15.3806 138.691 14.7615C137.768 14.1434 137.257 13.319 137.257 12.1839ZM163.255 4.6554V14.453C163.255 14.7626 163.358 15.0722 163.358 15.3818H159.774L159.672 13.835C159.161 14.4542 158.546 14.969 157.933 15.1754C157.216 15.485 156.397 15.6902 155.374 15.6902C153.94 15.6902 152.918 15.3806 152.201 14.6594C151.484 14.0403 151.178 13.0095 151.178 11.5659V4.6554H154.965V11.1531C154.965 11.9787 155.068 12.4935 155.476 12.9063C155.783 13.2159 156.295 13.4222 157.114 13.4222C157.829 13.4222 158.342 13.2159 158.853 12.8031C159.262 12.4935 159.467 11.9775 159.467 11.2552V4.6554H163.255ZM166.735 0.0151367H170.523V2.79906H166.735V0.0151367ZM166.735 4.6554H170.523V15.3806H166.735V4.6554ZM174.821 6.82131H172.263V4.6554H174.821V2.59268L178.608 1.4587V4.6554H181.576V6.82131H178.506V12.0807C178.506 12.3903 178.608 12.6999 178.914 12.9063C179.119 13.1127 179.529 13.2159 179.937 13.2159H180.757C180.961 13.2159 181.269 13.1127 181.576 13.1127V15.2786C180.961 15.3818 180.451 15.485 179.836 15.5882H178.2C176.971 15.5882 176.152 15.3818 175.64 14.8669C175.026 14.4542 174.821 13.6286 174.821 12.5978V6.82131ZM187.82 7.0277C188.229 6.61607 188.742 6.40854 189.356 6.40854C190.072 6.40854 190.687 6.61492 190.993 6.9245C191.403 7.33728 191.607 7.95529 191.607 8.67764H187.103C187.207 7.95529 187.412 7.44047 187.82 7.0277ZM191.71 11.9775C191.505 12.4935 191.301 12.9063 190.89 13.2159C190.583 13.4222 190.071 13.5254 189.458 13.5254C188.638 13.5254 188.024 13.319 187.615 12.9063C187.207 12.3903 187.001 11.6691 187.001 10.6372H195.497V10.018C195.497 8.16168 194.985 6.82131 193.961 5.89257C192.938 4.86178 191.505 4.44901 189.663 4.44901C187.615 4.44901 186.08 4.96498 184.954 5.89257C183.93 6.92336 183.316 8.36806 183.316 10.1212C183.316 11.8743 183.93 13.2159 184.954 14.2466C186.079 15.1754 187.513 15.6902 189.458 15.6902C191.094 15.6902 192.426 15.2786 193.45 14.6594C194.372 14.0403 194.985 13.1127 195.086 11.9787H191.71V11.9775Z" fill="#B01842"/>
<path d="M8.49512 20.1254C8.29028 20.6402 8.08544 21.3625 7.8806 21.9806C7.77818 22.0849 7.47092 22.0849 7.47092 21.9806C7.67576 20.7434 7.16367 20.1254 6.03819 20.1254C5.01514 20.1254 3.88852 20.537 2.96789 21.6721C2.25209 22.4977 1.53515 23.9412 1.53515 25.3848C1.53515 27.3443 2.55821 28.1687 3.78724 28.1687C5.01514 28.1687 5.83449 27.4475 6.65271 26.3135C6.75513 26.3135 6.95997 26.3135 6.95997 26.4167C6.85755 27.0347 6.44787 27.8603 6.14061 28.3762C5.83335 28.3762 5.52609 28.4794 5.11755 28.5826C4.70902 28.5826 4.29934 28.6858 3.78724 28.6858C1.53515 28.6847 0 27.5507 0 25.2816C0 23.6316 0.819355 22.0849 1.84241 21.1562C2.76418 20.3306 4.29934 19.6083 6.14061 19.6083C7.26722 19.6094 8.18786 19.9178 8.49512 20.1254ZM10.3375 28.1687C10.1327 28.1687 9.92785 27.9623 9.92785 27.5507C9.92785 26.5199 10.5424 24.972 11.1557 24.1465C11.5654 23.7348 11.7703 23.6316 12.0775 23.6316C12.3848 23.6316 12.4872 23.9412 12.4872 24.354C12.4872 25.1784 11.8727 26.7252 11.3617 27.4475C10.952 27.9623 10.7472 28.1687 10.3375 28.1687ZM8.69996 26.9315C8.69996 27.9623 9.21205 28.6847 10.3375 28.6847C10.952 28.6847 11.6678 28.4783 12.3848 27.7559C13.3066 26.9304 13.6127 25.6932 13.6127 24.9709C13.7151 23.9401 13.203 23.1145 12.0775 23.1145C11.463 23.1145 10.8496 23.3221 10.1327 24.0433C9.31447 24.7656 8.69996 26.0028 8.69996 26.9315ZM18.1168 23.8369L17.4011 25.7964C18.2193 24.456 19.3447 23.1145 20.3689 23.1145C21.1883 23.1145 21.0859 23.8369 20.9835 24.2497C20.9835 24.5592 20.6762 25.2804 20.4714 25.7964C21.4944 24.1465 22.5186 23.1145 23.4392 23.1145C24.0538 23.1145 24.2586 23.5273 24.2586 23.9401C24.2586 24.1465 24.1562 24.5592 24.0538 24.8688C23.8489 25.5912 23.2344 27.0347 22.9283 27.5507C22.9283 27.6539 22.9283 27.7571 23.0307 27.7571C23.2355 27.7571 23.8489 27.3455 24.1562 26.8283C24.361 26.8283 24.4634 26.9315 24.4634 27.1379C24.0549 27.8603 22.9283 28.6858 21.9052 28.6858C21.7004 28.6858 21.4955 28.4794 21.4955 28.2731C21.4955 28.0667 21.598 27.9635 21.7004 27.4487C22.1101 26.7263 22.5197 25.5923 22.8259 24.87C22.9283 24.5604 23.0307 24.252 23.0307 24.0444C23.0307 23.9412 23.0307 23.838 22.8259 23.838C22.621 23.838 22.1101 24.2508 21.4955 24.972C20.7786 25.9008 20.1652 27.1379 19.5507 28.4794C19.4483 28.5826 19.3459 28.6858 19.141 28.6858C18.7325 28.6858 18.3217 28.5826 18.5265 28.2731C18.5265 28.1699 19.5496 25.4891 19.7544 24.87C19.8568 24.6636 20.0617 24.252 20.0617 24.0444C20.0617 23.9412 19.9593 23.838 19.8568 23.838C19.5496 23.838 19.0375 24.1476 18.4241 25.0752C17.7083 25.9008 17.0938 27.1379 16.4793 28.4794C16.4793 28.5826 16.3769 28.6858 16.172 28.6858C15.7623 28.6858 15.3538 28.5826 15.4562 28.2731C15.5586 28.1699 16.6853 24.7668 16.889 24.4583C16.9914 24.1476 16.9914 24.0456 16.7865 24.0456C16.3769 24.0456 15.9672 24.4583 15.6599 24.7679C15.5575 24.7679 15.4551 24.6647 15.4551 24.4583C15.7623 23.736 16.5806 23.1168 17.7072 23.1168C18.1168 23.1145 18.2193 23.5285 18.1168 23.8369ZM29.0689 23.9401C29.1713 23.9401 29.2737 23.8369 29.3761 23.8369C29.7858 23.8369 30.2979 24.1465 30.2979 24.8677C30.2979 25.5889 29.9907 26.5176 29.3761 27.3432C28.9665 27.9612 28.4555 28.1676 28.2507 28.1676C28.0458 28.1676 27.9434 28.0644 27.841 27.9612C27.7386 27.7548 27.7386 27.6516 27.841 27.4464L29.0689 23.9401ZM29.4786 22.5997C29.4786 22.4965 29.1713 22.3933 28.8641 22.3933C28.6592 22.3933 28.4555 22.3933 28.3531 22.4965L27.9434 23.5273C27.4325 23.6305 26.7155 24.0421 26.307 24.3529C26.2046 24.456 26.307 24.5592 26.4094 24.6624C26.9204 24.3529 27.3312 24.1465 27.7397 24.1465L25.4876 30.541C25.2828 31.159 25.1804 31.4698 24.567 31.5718L24.1573 31.675C24.0549 31.675 24.0549 31.8814 24.2597 31.9846C25.2828 31.8814 26.4094 31.8814 27.4336 31.8814C27.6384 31.7782 27.6384 31.5718 27.536 31.4698H27.0239C26.5118 31.4698 26.5118 31.159 26.8191 30.439L27.3312 28.789C27.4336 28.6858 27.4336 28.5826 27.536 28.5826C27.7409 28.5826 27.8433 28.6858 27.9446 28.6858C28.5591 28.6858 29.5821 28.3762 30.2991 27.7571C31.0149 27.0347 31.6294 26.0039 31.6294 25.0752C31.6294 23.9412 30.81 23.3232 29.5821 23.3232C29.4797 23.3232 29.3773 23.3232 29.1725 23.4264L29.4786 22.5997ZM34.6985 27.4475C34.4937 27.7571 34.4937 27.9623 34.6985 27.9623C35.0058 27.9623 35.7216 27.24 36.1313 26.7252C36.3361 26.7252 36.4385 26.7252 36.3361 26.9315C36.0289 27.6539 35.2106 28.6847 33.8803 28.6847C33.3682 28.6847 33.2658 28.3751 33.2658 28.1687C33.2658 27.9623 33.2658 27.7571 33.4707 27.24L35.6203 20.9498C35.8252 20.2286 35.8252 20.1254 35.6203 19.919L35.3131 19.8158C35.2106 19.7126 35.2106 19.6094 35.3131 19.5062C35.6203 19.403 36.7458 19.1966 37.3603 19.0946L37.4627 19.1978C37.2579 19.7126 37.1555 20.1265 36.7469 21.2605L34.6985 27.4475ZM40.9416 23.6316C41.1464 23.6316 41.1464 23.7348 41.1464 23.9412C41.1464 24.1476 41.044 24.5604 40.7367 24.972C40.3271 25.3848 39.9174 25.5912 39.2016 25.7976C39.4064 25.3859 39.7137 24.6636 40.1234 24.1476C40.4295 23.7348 40.7367 23.6316 40.9416 23.6316ZM38.7919 28.6847C39.7137 28.6847 40.6343 28.2719 41.3513 27.3443C41.3513 27.1368 41.2488 27.0336 41.1464 27.0336C40.5319 27.5496 40.0198 27.8591 39.6101 27.8591C39.2016 27.8591 38.9956 27.5496 38.9956 27.1368C38.9956 26.7252 38.9956 26.4156 39.098 26.3124C40.5308 25.8996 42.2707 25.1773 42.2707 24.0433C42.2707 23.6316 41.8611 23.1145 41.2477 23.1145C40.7356 23.1145 40.2246 23.3221 39.5077 23.8369C38.1774 24.7656 37.5629 26.3124 37.5629 27.24C37.564 27.9623 37.9737 28.6847 38.7919 28.6847ZM46.1615 23.9401L45.0361 27.3443C44.9337 27.5507 44.9337 27.6539 45.1385 27.6539C45.3433 27.6539 46.0603 27.1379 46.5724 26.6231C46.6748 26.6231 46.7772 26.7263 46.7772 26.8295C46.1627 27.7582 44.9348 28.6858 44.1154 28.6858C43.8082 28.6858 43.6045 28.4794 43.6045 28.2731C43.6045 28.0667 43.6045 27.8614 43.7069 27.5518L44.9348 23.9424H43.9117C43.9117 23.8392 43.9117 23.6328 44.1166 23.5307L45.1396 23.3244L46.0614 22.0872C46.0614 21.9828 46.1638 21.9828 46.3687 21.9828C46.4711 21.9828 46.6759 22.0872 46.7783 22.1904L46.3687 23.4276H47.699C47.8014 23.5307 47.699 23.9424 47.5966 23.9424H46.1615V23.9401ZM51.6888 23.6316C51.7912 23.6316 51.8936 23.7348 51.8936 23.9412C51.8936 24.1476 51.7912 24.5604 51.3815 24.972C50.9718 25.3848 50.5622 25.5912 49.9488 25.7976C50.0512 25.3859 50.3585 24.6636 50.8706 24.1476C51.1778 23.7348 51.4839 23.6316 51.6888 23.6316ZM49.5391 28.6847C50.4609 28.6847 51.2791 28.2719 51.996 27.3443C52.0985 27.1368 51.996 27.0336 51.7912 27.0336C51.1767 27.5496 50.7681 27.8591 50.256 27.8591C49.9488 27.8591 49.744 27.5496 49.744 27.1368C49.744 26.7252 49.7439 26.4156 49.8464 26.3124C51.2791 25.8996 53.0191 25.1773 53.0191 24.0433C53.0191 23.6316 52.6094 23.1145 51.996 23.1145C51.4839 23.1145 50.8706 23.3221 50.1536 23.8369C48.9246 24.7656 48.3112 26.3124 48.3112 27.24C48.3112 27.9623 48.7209 28.6847 49.5391 28.6847ZM53.6336 30.025C53.4288 29.9219 53.4288 29.7155 53.4288 29.6134C54.0433 29.407 54.7591 28.8911 54.7591 28.2719C54.7591 28.0655 54.5542 27.8603 54.3505 27.6539C54.2481 27.6539 54.1457 27.4475 54.1457 27.3443C54.1457 26.9315 54.453 26.622 54.8615 26.622C55.3736 26.622 55.8846 27.1368 55.8846 27.8591C55.8857 28.8911 54.7591 29.7155 53.6336 30.025ZM62.8457 27.6527C62.7432 27.0336 62.8457 26.4156 62.9481 25.8996C63.0505 25.7964 63.2553 25.7964 63.3566 25.8996C63.459 26.4156 63.5615 26.9304 63.7663 27.3443C64.1748 27.8591 64.6869 28.1687 65.4027 28.1687C66.2221 28.1687 67.1427 27.6539 67.1427 26.5199C67.1427 25.6944 66.5282 24.972 65.8124 24.4572C65.1979 24.0444 64.4821 23.3232 64.4821 22.2913C64.4821 20.6413 65.8124 19.6094 67.45 19.6094C68.3718 19.6094 69.19 19.919 69.5997 20.2286C69.4972 20.6402 69.2924 21.2593 69.19 21.8774C69.0876 21.9806 68.7803 21.9806 68.6779 21.8774C68.8827 20.9486 68.5755 20.1254 67.2451 20.1254C66.2221 20.1254 65.7089 20.8466 65.7089 21.6721C65.7089 22.4977 66.5282 23.1157 66.9379 23.4253C67.7561 24.0433 68.473 24.7656 68.473 26.0028C68.473 27.5507 67.2451 28.6847 65.1979 28.6847C64.0736 28.6847 63.1529 28.2719 62.8457 27.6527ZM71.648 27.5507C71.5456 27.6539 71.5456 27.7571 71.648 27.7571C71.8529 27.7571 72.5698 27.2411 72.9783 26.8283C73.0808 26.8283 73.1832 27.0347 73.1832 27.1379C72.8759 27.6539 71.5456 28.6858 70.6238 28.6858C70.419 28.6858 70.2142 28.3762 70.2142 28.2731C70.2142 28.1699 70.2142 27.9635 70.3166 27.7582L71.7493 24.3551V24.1476C71.5445 24.1476 71.0335 24.4583 70.6238 24.7668C70.5214 24.7668 70.419 24.6636 70.419 24.5604C71.1348 23.7348 72.2614 23.1157 72.7724 23.1157C72.9772 23.1157 73.1821 23.3232 73.2845 23.5285C73.2845 23.6316 73.1821 23.838 73.0796 24.0433L71.648 27.5507ZM72.365 20.9498C72.365 20.5381 72.6722 20.0222 73.2856 20.0222C73.6953 20.0222 73.9001 20.2286 73.9001 20.6402C73.9001 21.1562 73.4916 21.5689 72.9783 21.5689C72.5698 21.5689 72.365 21.2593 72.365 20.9498ZM77.5849 23.8369L76.868 25.7964C77.6874 24.456 78.8128 23.1145 79.8359 23.1145C80.6553 23.1145 80.6553 23.8369 80.5528 24.2497C80.4504 24.5592 80.1432 25.2804 79.9383 25.7964C80.9614 24.1465 82.088 23.1145 83.0086 23.1145C83.5207 23.1145 83.7244 23.5273 83.7244 23.9401C83.7244 24.1465 83.622 24.5592 83.5196 24.8688C83.3147 25.5912 82.7002 27.0347 82.4954 27.5507C82.3941 27.6539 82.3941 27.7571 82.4954 27.7571C82.7002 27.7571 83.3147 27.3455 83.7244 26.8283C83.8268 26.8283 83.9293 26.9315 83.9293 27.1379C83.5207 27.8603 82.3941 28.6858 81.4723 28.6858C81.1651 28.6858 80.9614 28.4794 80.9614 28.2731C80.9614 28.0667 81.0638 27.9635 81.1662 27.4487C81.5759 26.7263 81.9856 25.5923 82.2917 24.87C82.3941 24.5604 82.4965 24.252 82.4965 24.0444C82.4965 23.9412 82.4965 23.838 82.2917 23.838C82.0869 23.838 81.5759 24.2508 80.9614 24.972C80.2444 25.9008 79.7323 27.1379 79.0165 28.4794C78.9141 28.5826 78.8117 28.6858 78.6069 28.6858C78.2996 28.6858 77.8911 28.5826 77.9924 28.2731C77.9924 28.1699 79.0154 25.4891 79.3227 24.87C79.3227 24.6636 79.5275 24.252 79.5275 24.0444C79.5275 23.9412 79.4251 23.838 79.3227 23.838C79.0154 23.838 78.5033 24.1476 77.8899 25.0752C77.2754 25.9008 76.6609 27.1379 76.0475 28.4794C75.9451 28.5826 75.8427 28.6858 75.6378 28.6858C75.2282 28.6858 74.922 28.5826 74.922 28.2731C75.0245 28.1699 76.2524 24.7668 76.3548 24.4583C76.4572 24.1476 76.4572 24.0456 76.2524 24.0456C75.8427 24.0456 75.4341 24.4583 75.1269 24.7679C75.0245 24.7679 74.922 24.6647 74.922 24.4583C75.3306 23.736 76.0475 23.1168 77.1741 23.1168C77.6874 23.1145 77.6874 23.5285 77.5849 23.8369ZM88.537 23.9401C88.6394 23.9401 88.7418 23.8369 88.8442 23.8369C89.2539 23.8369 89.766 24.1465 89.766 24.8677C89.766 25.5889 89.4588 26.5176 88.9467 27.3432C88.4346 27.9612 87.9236 28.1676 87.7188 28.1676C87.5139 28.1676 87.4115 28.0644 87.3091 27.9612C87.2067 27.7548 87.2067 27.6516 87.3091 27.4464L88.537 23.9401ZM88.9455 22.5997C88.9455 22.4965 88.6383 22.3933 88.331 22.3933C88.1262 22.3933 87.9213 22.3933 87.8189 22.4965L87.4092 23.5273C86.8971 23.6305 86.1813 24.0421 85.7717 24.3529C85.6693 24.456 85.7717 24.5592 85.9765 24.6624C86.3862 24.3529 86.7959 24.1465 87.2055 24.1465L84.9535 30.541C84.7486 31.159 84.6462 31.4698 84.0328 31.5718L83.6231 31.675C83.5207 31.675 83.6231 31.8814 83.7256 31.9846C84.7486 31.8814 85.8752 31.8814 86.8983 31.8814C87.1031 31.7782 87.1031 31.5718 87.0007 31.4698H86.4897C85.9776 31.4698 85.9776 31.159 86.2849 30.439L86.797 28.789C86.8994 28.6858 86.8994 28.5826 87.0018 28.5826C87.2067 28.5826 87.3091 28.6858 87.5139 28.6858C88.0249 28.6858 89.0491 28.3762 89.766 27.7571C90.5854 27.0347 91.0963 26.0039 91.0963 25.0752C91.0963 23.9412 90.277 23.3232 89.1515 23.3232C88.9467 23.3232 88.8443 23.3232 88.743 23.4264L88.9455 22.5997ZM94.1666 27.4475C94.0642 27.7571 94.0642 27.9623 94.1666 27.9623C94.4739 27.9623 95.1897 27.24 95.5994 26.7252C95.8042 26.7252 95.9066 26.7252 95.8042 26.9315C95.497 27.6539 94.6787 28.6847 93.4497 28.6847C92.9376 28.6847 92.7339 28.3751 92.7339 28.1687C92.7339 27.9623 92.7339 27.7571 92.9387 27.24L95.0884 20.9498C95.3957 20.2286 95.2933 20.1254 95.0884 19.919L94.7812 19.8158C94.6787 19.7126 94.6787 19.6094 94.7812 19.5062C95.0884 19.403 96.2139 19.1966 96.8284 19.0946C96.9308 19.0946 96.9308 19.1978 96.9308 19.1978C96.726 19.7126 96.6236 20.1265 96.215 21.2605L94.1666 27.4475ZM100.41 23.6316C100.615 23.6316 100.717 23.7348 100.717 23.9412C100.717 24.1476 100.512 24.5604 100.205 24.972C99.7952 25.3848 99.3855 25.5912 98.6697 25.7976C98.8745 25.3859 99.1818 24.6636 99.5903 24.1476C100 23.7348 100.205 23.6316 100.41 23.6316ZM98.3624 28.6847C99.1818 28.6847 100.102 28.2719 100.819 27.3443C100.819 27.1368 100.717 27.0336 100.615 27.0336C100 27.5496 99.489 27.8591 99.0782 27.8591C98.6697 27.8591 98.4637 27.5496 98.4637 27.1368C98.4637 26.7252 98.5661 26.4156 98.5661 26.3124C99.9989 25.8996 101.841 25.1773 101.841 24.0433C101.841 23.6316 101.432 23.1145 100.818 23.1145C100.306 23.1145 99.6927 23.3221 98.9758 23.8369C97.7479 24.7656 97.1334 26.3124 97.1334 27.24C97.1345 27.9623 97.4406 28.6847 98.3624 28.6847ZM107.165 25.3848C107.165 24.7656 107.779 23.4253 108.496 22.8061C108.804 22.4965 109.007 22.3945 109.212 22.3945C109.52 22.3945 109.724 22.6009 109.724 22.8061C109.622 23.2189 108.905 24.354 108.188 24.8688C107.574 25.488 107.266 25.5912 107.165 25.5912V25.3848ZM109.007 20.1254C110.85 20.1254 112.282 21.2593 112.282 23.2189C112.282 24.7656 111.054 25.7964 109.827 25.6932C109.519 25.6932 109.519 25.59 109.622 25.2816C109.827 24.7656 110.952 22.0849 111.157 21.6721C110.952 21.5689 110.646 21.4657 110.44 21.5689L110.133 22.1881C109.993 22.0587 109.811 21.985 109.622 21.9806C108.496 21.9806 107.574 22.8061 106.96 23.5285C106.243 24.5592 105.937 25.3848 105.937 25.5912C105.937 25.9008 106.142 26.2092 106.551 26.2092C107.062 26.2092 108.29 25.488 109.007 24.6624L108.7 25.3848V25.7964C108.7 25.8996 108.7 26.208 109.622 26.208C111.669 26.208 112.897 24.8677 112.897 23.2189C112.897 21.2593 111.567 19.6094 109.007 19.6094C106.345 19.6094 103.89 21.5689 103.89 24.6624C103.89 27.3443 106.039 28.6847 108.188 28.6847C109.007 28.6847 110.03 28.4783 110.85 28.0655C110.85 27.9623 110.85 27.8591 110.747 27.7559C110.338 27.9623 109.622 28.2708 108.7 28.2708C105.833 28.2708 105.015 26.208 105.015 24.7645C105.015 22.3945 106.551 20.1254 109.007 20.1254ZM117.195 28.1687C117.297 28.2719 117.195 28.4794 117.093 28.4794H113.51C113.408 28.4794 113.408 28.1687 113.614 28.1687L113.921 28.0655C114.534 28.0655 114.638 27.8591 115.047 26.622L116.582 21.7742C116.991 20.537 116.991 20.3306 116.274 20.2274H115.866C115.763 20.1242 115.866 19.8146 115.968 19.8146H119.55C119.652 19.9178 119.652 20.1254 119.55 20.2274H119.141C118.527 20.3306 118.424 20.4338 118.016 21.7742L116.479 26.622C116.172 27.7559 116.172 28.0655 116.788 28.0655L117.195 28.1687ZM125.282 23.8369C125.282 24.1465 125.179 24.5592 125.077 24.8677C124.872 25.59 124.257 27.0336 124.054 27.5496C123.951 27.6527 123.951 27.7559 124.054 27.7559C124.259 27.7559 124.873 27.3443 125.282 26.8272C125.384 26.8272 125.486 26.9304 125.486 27.1368C125.078 27.8591 124.054 28.6847 123.031 28.6847C122.723 28.6847 122.52 28.4783 122.52 28.2719C122.622 27.9623 123.133 26.7252 123.85 24.8688C123.952 24.5592 124.055 24.2508 124.055 24.0433C124.055 23.9401 124.055 23.8369 123.952 23.8369C123.645 23.8369 123.133 24.2497 122.52 24.9709C121.803 25.8996 121.188 27.1368 120.575 28.4783C120.472 28.5815 120.267 28.6847 120.063 28.6847C119.859 28.6847 119.448 28.5815 119.551 28.2719C119.551 28.0655 120.78 24.7656 120.882 24.4572C120.985 24.2508 120.985 24.0444 120.882 24.0444C120.575 24.0444 120.063 24.3551 119.757 24.7668C119.653 24.7668 119.551 24.6636 119.551 24.5604C119.96 23.838 120.882 23.1157 121.803 23.1157C122.211 23.1157 122.314 23.5285 122.11 23.838L121.393 25.9008C122.212 24.6636 123.44 23.1157 124.566 23.1157C125.077 23.1145 125.282 23.5285 125.282 23.8369ZM129.888 23.9401L128.763 27.3443C128.659 27.5507 128.659 27.6539 128.865 27.6539C129.07 27.6539 129.787 27.1379 130.298 26.6231C130.4 26.6231 130.503 26.7263 130.503 26.8295C129.889 27.7582 128.66 28.6858 127.74 28.6858C127.633 28.6788 127.533 28.6331 127.458 28.5571C127.382 28.4812 127.337 28.3802 127.33 28.2731C127.33 28.0667 127.33 27.8614 127.432 27.5518L128.66 23.9424H127.637C127.637 23.8392 127.637 23.6328 127.843 23.5307L128.866 23.3244L129.685 22.0872C129.788 21.9828 129.891 21.9828 129.993 21.9828C130.198 21.9828 130.401 22.0872 130.504 22.1904L130.095 23.4276H131.426C131.528 23.5307 131.426 23.9424 131.323 23.9424H129.888V23.9401ZM135.312 23.6316C135.517 23.6316 135.619 23.7348 135.619 23.9412C135.619 24.1476 135.414 24.5604 135.108 24.972C134.699 25.3848 134.289 25.5912 133.674 25.7976C133.777 25.3859 134.084 24.6636 134.596 24.1476C134.903 23.7348 135.209 23.6316 135.312 23.6316ZM133.265 28.6847C134.084 28.6847 135.005 28.2719 135.72 27.3443C135.72 27.1368 135.618 27.0336 135.516 27.0336C134.902 27.5496 134.493 27.8591 133.98 27.8591C133.672 27.8591 133.468 27.5496 133.468 27.1368C133.468 26.7252 133.468 26.4156 133.571 26.3124C135.005 25.8996 136.744 25.1773 136.744 24.0433C136.744 23.6316 136.335 23.1145 135.72 23.1145C135.209 23.1145 134.595 23.3221 133.879 23.8369C132.65 24.7656 132.037 26.3124 132.037 27.24C132.037 27.9623 132.446 28.6847 133.265 28.6847ZM140.226 24.456L139.817 25.8996H139.92C140.328 25.1773 140.739 24.3529 141.045 23.9401C141.454 23.4253 141.864 23.1145 142.171 23.1145C142.579 23.1145 142.785 23.5273 142.785 23.8369C142.785 24.2497 142.477 24.9709 142.068 24.9709C141.966 24.9709 141.863 24.7645 141.863 24.5592C141.761 24.2497 141.761 24.1465 141.555 24.1465C141.453 24.1465 141.146 24.4572 140.737 25.1773C140.225 25.8996 139.714 27.24 139.099 28.4783C139.099 28.5815 138.894 28.6847 138.691 28.6847C138.382 28.6847 137.974 28.5815 138.076 28.2719C138.383 27.3443 138.998 25.5912 139.406 24.354C139.509 24.1465 139.406 24.0433 139.304 24.0433C138.997 24.0433 138.587 24.354 138.281 24.7656C138.179 24.7656 138.076 24.6624 138.076 24.456C138.383 23.9401 139.099 23.1145 139.919 23.1145C140.634 23.1145 140.429 23.9401 140.226 24.456ZM149.744 23.8369C149.744 24.1465 149.642 24.5592 149.539 24.8677C149.334 25.59 148.617 27.0336 148.414 27.5496C148.414 27.6527 148.414 27.7559 148.516 27.7559C148.721 27.7559 149.335 27.3443 149.642 26.8272C149.846 26.8272 149.949 26.9304 149.949 27.1368C149.438 27.8591 148.414 28.6847 147.391 28.6847C147.186 28.6847 146.982 28.4783 146.982 28.2719C146.982 28.0655 146.982 27.9623 147.187 27.4475C147.595 26.7252 148.006 25.5912 148.312 24.8688C148.415 24.5592 148.517 24.2508 148.517 24.0433C148.517 23.9401 148.517 23.8369 148.312 23.8369C148.108 23.8369 147.595 24.2497 146.982 24.9709C146.265 25.8996 145.651 27.1368 144.935 28.4783C144.935 28.5815 144.729 28.6847 144.525 28.6847C144.321 28.6847 143.808 28.5815 143.912 28.2719C144.014 28.0655 145.242 24.7656 145.344 24.4572C145.447 24.2508 145.447 24.0444 145.242 24.0444C145.037 24.0444 144.525 24.3551 144.219 24.7668C144.014 24.7668 143.912 24.6636 143.912 24.5604C144.423 23.838 145.344 23.1157 146.164 23.1157C146.675 23.1157 146.675 23.5285 146.572 23.838L145.753 25.9008H145.855C146.675 24.6636 147.903 23.1157 149.029 23.1157C149.539 23.1145 149.744 23.5285 149.744 23.8369ZM154.861 23.6316C155.067 23.6316 155.067 23.7348 155.067 23.9412C155.067 24.1476 154.965 24.5604 154.658 24.972C154.249 25.3848 153.838 25.5912 153.123 25.7976C153.327 25.3859 153.634 24.6636 154.044 24.1476C154.453 23.7348 154.657 23.6316 154.861 23.6316ZM152.814 28.6847C153.634 28.6847 154.554 28.2719 155.271 27.3443C155.271 27.1368 155.169 27.0336 155.066 27.0336C154.452 27.5496 153.94 27.8591 153.53 27.8591C153.12 27.8591 152.917 27.5496 152.917 27.1368C152.917 26.7252 153.019 26.4156 153.019 26.3124C154.452 25.8996 156.294 25.1773 156.294 24.0433C156.294 23.6316 155.885 23.1145 155.169 23.1145C154.759 23.1145 154.146 23.3221 153.429 23.8369C152.201 24.7656 151.586 26.3124 151.586 27.24C151.586 27.9623 151.894 28.6847 152.814 28.6847ZM160.083 23.9401L158.957 27.3443C158.854 27.5507 158.957 27.6539 159.06 27.6539C159.264 27.6539 159.981 27.1379 160.492 26.6231C160.595 26.6231 160.697 26.7263 160.697 26.8295C160.084 27.7582 158.855 28.6858 158.037 28.6858C157.728 28.6858 157.524 28.4794 157.524 28.2731C157.524 28.0667 157.524 27.8614 157.729 27.5518L158.855 23.9424H157.934C157.831 23.8392 157.934 23.6328 158.037 23.5307L159.162 23.3244L159.981 22.0872C159.981 21.9828 160.084 21.9828 160.289 21.9828C160.493 21.9828 160.596 22.0872 160.697 22.1904L160.289 23.4276H161.619C161.721 23.5307 161.619 23.9424 161.516 23.9424H160.083V23.9401ZM166.735 27.6527C166.633 27.0336 166.735 26.4156 166.838 25.8996C166.838 25.7964 167.145 25.7964 167.145 25.8996C167.249 26.4156 167.453 26.9304 167.657 27.3443C167.964 27.8591 168.579 28.1687 169.295 28.1687C170.113 28.1687 170.931 27.6539 170.931 26.5199C170.931 25.6944 170.318 24.972 169.601 24.4572C169.089 24.0444 168.373 23.3232 168.373 22.2913C168.373 20.6413 169.601 19.6094 171.341 19.6094C172.16 19.6094 173.081 19.919 173.49 20.2286C173.286 20.6402 173.082 21.2593 172.978 21.8774C172.876 21.9806 172.671 21.9806 172.57 21.8774C172.672 20.9486 172.365 20.1254 171.137 20.1254C170.113 20.1254 169.5 20.8466 169.5 21.6721C169.5 22.4977 170.421 23.1157 170.83 23.4253C171.649 24.0433 172.264 24.7656 172.264 26.0028C172.264 27.5507 171.036 28.6847 169.09 28.6847C167.963 28.6847 166.939 28.2719 166.735 27.6527ZM176.868 23.9401C176.97 23.9401 176.97 23.8369 177.176 23.8369C177.585 23.8369 177.995 24.1465 177.995 24.8677C177.995 25.5889 177.687 26.5176 177.176 27.3432C176.767 27.9612 176.153 28.1676 176.05 28.1676C175.845 28.1676 175.641 28.0644 175.641 27.9612C175.539 27.7548 175.539 27.6516 175.539 27.4464L176.868 23.9401ZM177.278 22.5997C177.175 22.4965 176.969 22.3933 176.561 22.3933C176.356 22.3933 176.152 22.3933 176.152 22.4965L175.743 23.5273C175.129 23.6305 174.515 24.0421 174.106 24.3529C174.003 24.456 174.106 24.5592 174.209 24.6624C174.617 24.3529 175.13 24.1465 175.539 24.1465L173.287 30.541C172.978 31.159 172.978 31.4698 172.264 31.5718L171.955 31.675C171.853 31.675 171.853 31.8814 171.955 31.9846C173.082 31.8814 174.106 31.8814 175.232 31.8814C175.334 31.7782 175.436 31.5718 175.334 31.4698H174.719C174.311 31.4698 174.311 31.159 174.515 30.439L175.129 28.789C175.129 28.6858 175.232 28.5826 175.334 28.5826C175.436 28.5826 175.641 28.6858 175.743 28.6858C176.357 28.6858 177.279 28.3762 177.995 27.7571C178.814 27.0347 179.428 26.0039 179.428 25.0752C179.428 23.9412 178.507 23.3232 177.381 23.3232C177.279 23.3232 177.073 23.3232 176.972 23.4264L177.278 22.5997ZM184.339 23.6316C184.545 23.6316 184.545 23.7348 184.545 23.9412C184.545 24.1476 184.442 24.5604 184.135 24.972C183.727 25.3848 183.316 25.5912 182.6 25.7976C182.805 25.3859 183.111 24.6636 183.522 24.1476C183.93 23.7348 184.135 23.6316 184.339 23.6316ZM182.293 28.6847C183.112 28.6847 184.033 28.2719 184.75 27.3443C184.75 27.1368 184.647 27.0336 184.545 27.0336C183.93 27.5496 183.419 27.8591 183.009 27.8591C182.6 27.8591 182.395 27.5496 182.395 27.1368C182.395 26.7252 182.498 26.4156 182.498 26.3124C183.93 25.8996 185.773 25.1773 185.773 24.0433C185.773 23.6316 185.364 23.1145 184.647 23.1145C184.238 23.1145 183.624 23.3221 182.907 23.8369C181.679 24.7656 181.065 26.3124 181.065 27.24C181.064 27.9623 181.372 28.6847 182.293 28.6847ZM190.173 23.6316C190.277 23.6316 190.379 23.7348 190.379 23.9412C190.379 24.1476 190.173 24.5604 189.867 24.972C189.459 25.3848 189.048 25.5912 188.435 25.7976C188.537 25.3859 188.843 24.6636 189.356 24.1476C189.662 23.7348 189.97 23.6316 190.173 23.6316ZM188.025 28.6847C188.844 28.6847 189.765 28.2719 190.482 27.3443C190.482 27.1368 190.379 27.0336 190.277 27.0336C189.662 27.5496 189.254 27.8591 188.741 27.8591C188.433 27.8591 188.229 27.5496 188.229 27.1368C188.229 26.7252 188.229 26.4156 188.331 26.3124C189.765 25.8996 191.505 25.1773 191.505 24.0433C191.505 23.6316 191.095 23.1145 190.482 23.1145C189.97 23.1145 189.356 23.3221 188.639 23.8369C187.412 24.7656 186.797 26.3124 186.797 27.24C186.797 27.9623 187.207 28.6847 188.025 28.6847ZM196.622 23.6316C196.93 23.6316 197.031 24.0433 196.93 24.5604C196.655 25.3748 196.2 26.1156 195.599 26.7263C194.882 27.5518 194.063 28.0667 193.859 28.0667C193.757 28.0667 193.655 27.9635 193.655 27.8603C193.655 27.5507 193.859 26.8295 194.371 26.0039C194.819 25.3021 195.333 24.6459 195.907 24.0444C196.213 23.7348 196.52 23.6316 196.622 23.6316ZM196.622 23.1145C195.905 23.1145 195.086 23.5273 194.166 24.2497C193.142 25.1773 192.529 26.6208 192.427 27.5496C192.427 28.2708 192.835 28.6835 193.348 28.6835C194.679 28.6835 195.702 27.3432 196.521 26.208L196.111 27.3432C196.009 27.7548 195.907 28.0644 195.907 28.2708C195.907 28.4783 196.009 28.6835 196.315 28.6835C197.338 28.6835 198.466 27.5496 198.772 27.0336C198.772 26.8272 198.67 26.724 198.567 26.724C198.158 27.2388 197.442 27.7548 197.236 27.7548C197.133 27.7548 197.133 27.6516 197.133 27.5484C197.236 27.4452 197.236 27.2377 197.338 26.9292C197.442 26.5176 198.772 22.5986 199.283 21.2582C199.591 20.3295 199.693 19.9167 200 19.1955L199.898 19.0923C199.283 19.0923 198.26 19.4019 197.953 19.5039C197.85 19.5039 197.85 19.6071 197.85 19.7103L198.158 19.9167C198.362 20.021 198.362 20.2274 198.158 20.8454L197.236 23.5273C197.133 23.3221 196.827 23.1145 196.622 23.1145Z" fill="#2B2C2D"/>
</g>
<defs>
<clipPath id="clip0_2019_13">
<rect width="200" height="32" fill="white"/>
</clipPath>
</defs>
</svg>
