<svg width="87" height="39" viewBox="0 0 87 39" fill="none" xmlns="http://www.w3.org/2000/svg">
<g clip-path="url(#clip0_64_4818)">
<mask id="mask0_64_4818" style="mask-type:luminance" maskUnits="userSpaceOnUse" x="-670" y="-1047" width="795" height="1124">
<path d="M-669.305 76.4302H124.396V-1046.09H-669.305V76.4302Z" fill="white"/>
</mask>
<g mask="url(#mask0_64_4818)">
<path d="M4.624 37.897V18.4143H0L0.0226666 13.937H4.624V12.1663C4.624 6.11431 8.412 2.9663 13.3813 2.9663C15.4973 2.9663 17.5147 3.6543 19.3347 4.88364L17.3667 8.67297C16.0387 7.83697 15.004 7.39297 13.676 7.39297C11.364 7.39297 9.74133 8.86897 9.74133 12.1663V13.937H17.072L15.488 18.4143H9.74133V37.897H4.624Z" fill="#2F495D"/>
<path d="M35.3222 19.5948C33.4036 17.8241 31.3383 17.3321 28.9276 17.3321C25.7783 17.2828 23.7609 18.3161 23.7609 20.2348C23.8103 22.2521 25.8769 22.9894 29.0249 23.3334C33.5022 23.7281 39.3076 24.6628 39.3076 30.9601C39.3076 35.4868 35.2249 38.6348 28.9756 38.6348C25.0409 38.6348 21.1036 37.7494 17.9062 34.1574L20.5636 30.5668C22.8756 33.0761 26.1716 34.1081 29.0743 34.1574C31.3862 34.1574 34.2409 33.2721 34.2409 31.0094C34.2889 28.8441 32.2236 28.0081 28.6316 27.6641C24.1049 27.2694 18.7422 25.6948 18.7422 20.3814C18.7422 15.0201 24.3023 13.0508 28.8289 13.0508C32.5676 13.0508 35.4209 13.8881 38.1756 16.2494L35.3222 19.5948Z" fill="#2F495D"/>
<path d="M47.657 3.50698V17.431C49.2317 14.5283 53.217 13.1016 56.1677 13.1016C63.1543 13.1016 68.4677 17.4803 68.4677 25.7456C68.4677 33.8136 63.105 38.3896 56.069 38.3896C52.7743 38.3896 49.5757 37.159 47.657 34.059L47.3623 37.8976H42.5903V3.50698H47.657ZM47.9517 25.7456C47.9517 30.5176 51.445 33.6656 55.725 33.6656C59.9077 33.6656 63.3997 30.6643 63.3997 25.7456C63.3997 20.8243 59.9077 17.8736 55.725 17.8736C51.4943 17.8736 47.9517 21.0216 47.9517 25.7456Z" fill="#2F495D"/>
<path d="M83.168 18.8477C82.4733 19.5357 81.5173 19.9624 80.4613 19.9624C78.336 19.9624 76.6147 18.2397 76.6147 16.1144C76.6147 14.6784 77.404 13.4277 78.5707 12.7664C77.7347 12.5277 76.9667 12.1357 76.2933 11.6237C75.0867 12.7437 74.3267 14.3384 74.3267 16.1144C74.3267 19.5024 77.0733 22.249 80.4613 22.249C82.1493 22.249 83.676 21.5677 84.784 20.465L83.168 18.8477Z" fill="#2F495D"/>
<path d="M67.6239 8.70022C67.0133 8.01888 66.6373 7.12155 66.6373 6.13355C66.6373 4.00955 68.3599 2.28688 70.4853 2.28688C71.6199 2.28688 73.1906 3.01888 73.8346 4.24422C74.0786 3.35755 74.5439 2.53088 74.9759 1.96422C73.8386 0.74155 72.2279 0.000217438 70.4853 0.000217438C67.0973 0.000217438 64.3506 2.74688 64.3506 6.13355C64.3506 7.74022 64.9719 9.19622 65.9826 10.2896L67.6239 8.70022Z" fill="#2F495D"/>
<path d="M84.8423 1.83827L83.2396 3.47161C83.9036 4.16361 84.3143 5.09961 84.3143 6.13427C84.3143 7.52761 83.5703 8.74361 82.4609 9.41961C83.2823 9.66361 84.0369 10.0569 84.7023 10.5649C85.8689 9.44894 86.5996 7.87827 86.5996 6.13427C86.5996 4.46094 85.9289 2.94494 84.8423 1.83827Z" fill="#2F495D"/>
</g>
<mask id="mask1_64_4818" style="mask-type:luminance" maskUnits="userSpaceOnUse" x="-670" y="-1047" width="795" height="1124">
<path d="M-669.305 76.4302H124.396V-1046.09H-669.305V76.4302Z" fill="white"/>
</mask>
<g mask="url(#mask1_64_4818)">
<path d="M80.3969 12.2663L80.4622 12.2676C82.5876 12.2676 84.3089 13.9903 84.3089 16.1143C84.3089 17.1836 83.8716 18.1503 83.1676 18.8476L84.7849 20.4663C85.9036 19.3543 86.5956 17.8156 86.5956 16.1143C86.5956 12.7263 83.8502 9.97964 80.4622 9.97964H80.4049C78.9849 9.95964 77.7529 9.16898 77.1022 8.00898C76.8649 8.84498 76.4702 9.61298 75.9556 10.2876C77.0636 11.4876 78.6382 12.2476 80.3969 12.2663Z" fill="#33BEBA"/>
<path d="M83.2398 3.47207L84.8424 1.83873C83.7291 0.7054 82.1798 6.67572e-05 80.4664 6.67572e-05C77.0784 6.67572e-05 74.3318 2.74673 74.3318 6.1334V6.13873C74.3291 8.2614 72.6078 9.9814 70.4838 9.9814C69.3478 9.9814 68.3291 9.4854 67.6238 8.70007L65.9864 10.2854L65.9824 10.2921C67.1504 11.4601 68.7024 12.2681 70.4838 12.2681C73.7878 12.2681 76.4731 9.6574 76.6064 6.38673C76.6158 6.22407 76.6171 6.19607 76.6198 6.1334C76.6198 4.0094 78.3411 2.28673 80.4664 2.28673C81.5571 2.28673 82.5398 2.74273 83.2398 3.47207Z" fill="#33BEBA"/>
</g>
</g>
<defs>
<clipPath id="clip0_64_4818">
<rect width="86.5996" height="38.6352" fill="white"/>
</clipPath>
</defs>
</svg>
